<svg width="36" height="36" viewBox="0 0 36 36" fill="none" xmlns="http://www.w3.org/2000/svg">
<path d="M26.6879 0.462646H9.50609C9.20541 0.462646 8.962 0.701402 8.962 0.996336V17.33H0.915185C0.614503 17.33 0.371094 17.5688 0.371094 17.8637V34.717C0.371094 35.012 0.614503 35.2507 0.915185 35.2507H18.097H35.2788C35.5795 35.2507 35.8229 35.012 35.8229 34.717V17.8497C35.8229 17.5547 35.5795 17.316 35.2788 17.316H27.2177V0.996336C27.232 0.701402 26.9886 0.462646 26.6879 0.462646ZM15.7775 1.51598H20.4309V5.33607L18.4836 3.42602C18.2688 3.21536 17.9395 3.21536 17.7247 3.42602L15.7775 5.33607V1.51598ZM7.18655 18.3693H9.52041H11.8543V22.1894L9.907 20.2794C9.69223 20.0687 9.36291 20.0687 9.14814 20.2794L7.20087 22.1894V18.3693H7.18655ZM17.5672 34.1693H1.45928V18.3693H6.11268V23.4674C6.11268 23.6781 6.24155 23.8747 6.442 23.959C6.64246 24.0433 6.87155 24.0011 7.02905 23.8467L9.50609 21.417L11.9831 23.8467C12.0834 23.945 12.2265 24.0011 12.3697 24.0011C12.4413 24.0011 12.5129 23.9871 12.5702 23.959C12.7706 23.8747 12.8995 23.6922 12.8995 23.4674V18.3693H17.5529V34.1693H17.5672ZM10.0502 17.316V1.51598H14.7036V6.61411C14.7036 6.82478 14.8325 7.0214 15.0329 7.10567C15.2334 7.18994 15.4625 7.1478 15.62 6.99331L18.097 4.56362L20.574 6.99331C20.6743 7.09163 20.8175 7.1478 20.9606 7.1478C21.0322 7.1478 21.1038 7.13376 21.1611 7.10567C21.3615 7.0214 21.4904 6.83883 21.4904 6.61411V1.51598H26.1438V17.316H18.097H10.0502ZM29.5515 23.9871C29.6231 23.9871 29.6947 23.9731 29.752 23.945C29.9525 23.8607 30.0813 23.6781 30.0813 23.4534V18.3553H34.7347V34.1553H18.6411V18.3693H23.2945V23.4674C23.2945 23.6781 23.4234 23.8747 23.6238 23.959C23.8243 24.0433 24.0534 24.0011 24.2109 23.8467L26.6879 21.417L29.165 23.8467C29.2795 23.9309 29.4084 23.9871 29.5515 23.9871ZM29.0218 18.3693V22.1894L27.0745 20.2794C26.8597 20.0687 26.5304 20.0687 26.3156 20.2794L24.3684 22.1894V18.3693H26.7022H29.0218Z" fill="#4F75D2"/>
</svg>
