<svg width="43" height="31" viewBox="0 0 43 31" fill="none" xmlns="http://www.w3.org/2000/svg">
<g clip-path="url(#clip0_56_10)">
<path d="M36.6721 7.41869C35.589 5.92101 34.0625 5.12905 32.2589 5.12905H26.1609L26.1619 3.3204C26.1619 1.54855 24.7726 0.106567 23.0651 0.106567H3.71008C2.00255 0.107052 0.613281 1.54855 0.613281 3.3204V23.4099C0.613281 25.1817 2.00255 26.6246 3.71008 26.6246H8.65068C8.98155 29.0334 10.9765 30.8934 13.3873 30.8934C15.7986 30.8934 17.7936 29.0334 18.1245 26.6246H28.9731C29.3035 29.0334 31.2989 30.8934 33.7093 30.8934C36.121 30.8934 38.116 29.0334 38.4469 26.6246H39.516C41.2235 26.6246 42.6128 25.1817 42.6128 23.4099V17.2835C42.6128 16.1946 42.2931 15.2011 41.6645 14.3298L36.6721 7.41869ZM13.3873 29.4873C11.4931 29.4873 9.95268 27.8874 9.95268 25.9218C9.95268 23.9548 11.4936 22.3563 13.3873 22.3563C15.282 22.3563 16.8225 23.9553 16.8225 25.9218C16.8225 27.8874 15.282 29.4873 13.3873 29.4873ZM24.8071 7.23802V24.5147V25.2175H18.1245C17.7927 22.8087 15.7986 20.9487 13.3873 20.9487C10.9765 20.9487 8.98248 22.8087 8.65068 25.2175H3.71008C2.74968 25.2175 1.96848 24.4067 1.96848 23.4099V3.3204C1.96848 2.32404 2.75015 1.51271 3.71008 1.51271H23.0655C24.0264 1.51271 24.8071 2.32452 24.8071 3.3204V7.23802ZM32.2589 6.53519C33.6393 6.53519 34.7593 7.11693 35.5881 8.26247L40.5814 15.1735H26.1619L26.1609 6.53519H32.2589ZM33.7097 29.4873C31.816 29.4873 30.2751 27.8874 30.2751 25.9218C30.2751 23.9548 31.8165 22.3563 33.7097 22.3563C35.6049 22.3563 37.1453 23.9553 37.1453 25.9218C37.1453 27.8874 35.6044 29.4873 33.7097 29.4873ZM41.2585 23.4099C41.2585 24.4072 40.4769 25.2175 39.5169 25.2175H38.4478C38.116 22.8087 36.1219 20.9487 33.7102 20.9487C31.2999 20.9487 29.3053 22.8087 28.974 25.2175H26.1619L26.1628 16.5802H41.1853C41.2291 16.8083 41.259 17.0408 41.259 17.283V23.4099H41.2585Z" fill="#4F75D2"/>
<path d="M22.3337 15.2419C22.2693 14.928 21.972 14.7279 21.6692 14.7953L20.1016 15.1435C20.2323 14.8951 20.355 14.6422 20.4596 14.3802C20.8455 13.4153 21.041 12.3918 21.041 11.3388C21.041 6.95857 17.6078 3.396 13.3877 3.396C9.16764 3.396 5.73438 6.95857 5.73438 11.3388C5.73438 15.719 9.16764 19.2825 13.3877 19.2825C14.181 19.2825 14.9576 19.1585 15.7042 18.9115C16.0482 18.7991 16.2054 18.3985 16.0673 18.0527C15.9292 17.7073 15.5474 17.5465 15.2016 17.6536C14.616 17.8352 14.0084 17.9268 13.3877 17.9268C9.88818 17.9268 7.04104 14.9711 7.04104 11.3383C7.04104 7.70645 9.88818 4.75079 13.3877 4.75079C16.8872 4.75079 19.7344 7.70645 19.7344 11.3383C19.7344 12.2126 19.5724 13.0602 19.2528 13.8604C19.1688 14.0711 19.0703 14.2751 18.9658 14.4761L18.7226 12.6505C18.6797 12.3327 18.3974 12.1114 18.0908 12.1559H18.0898C17.7837 12.2005 17.57 12.4935 17.6124 12.8118L18.0642 16.1922C18.1066 16.51 18.3862 16.7134 18.689 16.6466L21.9039 15.9331C22.2063 15.8667 22.3995 15.5577 22.3351 15.2433V15.2419H22.3337Z" fill="#4F75D2"/>
<path d="M16.3021 7.35472L13.3878 10.3811L11.1347 8.04157C10.8795 7.77662 10.4651 7.77661 10.2112 8.0406C9.95595 8.30555 9.95548 8.73519 10.2107 8.99966L12.9258 11.8197C13.0485 11.9466 13.2147 12.0183 13.3878 12.0183C13.5609 12.0183 13.7275 11.9466 13.8498 11.8197L17.2261 8.31379C17.4814 8.04883 17.4809 7.61919 17.2261 7.35472C16.9713 7.09074 16.5574 7.08977 16.3021 7.35472Z" fill="#4F75D2"/>
</g>
<defs>
<clipPath id="clip0_56_10">
<rect width="42" height="31" fill="white" transform="translate(0.613281)"/>
</clipPath>
</defs>
</svg>
