<svg width="45" height="27" viewBox="0 0 45 27" fill="none" xmlns="http://www.w3.org/2000/svg">
<g clip-path="url(#clip0_57_68)">
<path d="M37.9711 7.92054C37.8656 7.81993 37.7279 7.7651 37.583 7.7651H29.8892V1.72745C29.8892 1.41601 29.6364 1.16223 29.3251 1.16223H1.01332C0.701937 1.16223 0.449219 1.41601 0.449219 1.72745V23.0458C0.449219 23.3572 0.701937 23.611 1.01332 23.611H5.96445C6.23917 25.3671 7.77635 26.7078 9.57245 26.7078C11.3691 26.7078 12.9052 25.3671 13.1805 23.611H33.9772C34.2514 25.3671 35.7874 26.7078 37.5835 26.7078C39.3802 26.7078 40.9168 25.3671 41.1915 23.611H43.321C43.6324 23.611 43.8851 23.3572 43.8851 23.0458V13.7626C43.8851 13.6078 43.8208 13.4574 43.7086 13.3523L37.9711 7.92054ZM9.57245 25.5774C8.17968 25.5774 7.0464 24.4418 7.0464 23.0458C7.0464 21.6502 8.17968 20.5153 9.57245 20.5153C10.9652 20.5153 12.0985 21.6502 12.0985 23.0469C12.0968 24.4424 10.9641 25.5774 9.57245 25.5774ZM28.761 22.4805H13.1793C13.159 22.3562 13.1308 22.2262 13.0941 22.0843L13.0778 22.0216C13.0253 21.8413 12.9548 21.6581 12.8578 21.4547L12.8239 21.3846C12.7388 21.2167 12.6378 21.0528 12.525 20.8979L12.4629 20.8154C12.3456 20.6617 12.2164 20.5187 12.0821 20.3921L12.0088 20.3254C11.8616 20.1931 11.7081 20.075 11.5513 19.9732L11.4763 19.9269C11.298 19.8172 11.1249 19.7285 10.9472 19.6561L10.8411 19.9178L10.8812 19.6313C10.6736 19.5516 10.4778 19.4939 10.2381 19.4481C9.77327 19.3622 9.40548 19.3566 8.86224 19.4549C8.66255 19.4945 8.46455 19.5527 8.25753 19.633L8.19886 19.6544C8.01778 19.7285 7.83558 19.8212 7.66014 19.9303L7.59696 19.9687C7.43506 20.0733 7.27712 20.1948 7.11635 20.3401L7.06727 20.3847C6.92342 20.5209 6.79142 20.6684 6.67691 20.8194L6.62389 20.8883C6.50712 21.0488 6.40276 21.2178 6.31419 21.3914L6.56522 21.5202L6.27978 21.462C6.19122 21.6457 6.11789 21.8368 6.06486 22.0227L6.04455 22.0979C6.01071 22.2245 5.98363 22.3511 5.96276 22.4788H1.57742V2.29267H28.761V22.4805ZM37.583 25.5774C36.1908 25.5774 35.0586 24.4418 35.0586 23.0458L35.058 22.987C35.0896 21.6191 36.2105 20.5147 37.5824 20.5147C38.9757 20.5147 40.109 21.6497 40.109 23.0452C40.1096 24.4418 38.9763 25.5774 37.583 25.5774ZM42.7569 22.4805H41.1915C41.1723 22.359 41.1458 22.2352 41.1114 22.1075L41.09 22.0267C41.0381 21.8458 40.9664 21.6587 40.8784 21.4739L40.8373 21.388C40.751 21.219 40.6489 21.0534 40.5338 20.8945L40.4768 20.8182C40.3567 20.6628 40.2269 20.5181 40.0904 20.3904L40.0233 20.3288C39.8755 20.1948 39.7198 20.075 39.5647 19.9755L39.4902 19.9291C39.3148 19.8212 39.1359 19.7291 38.9588 19.6567L38.8951 19.633C38.6948 19.555 38.4929 19.4956 38.2509 19.4493C37.7917 19.3645 37.4228 19.3577 36.8722 19.4561C36.6753 19.4951 36.4739 19.5544 36.2635 19.6364L36.2088 19.6567C36.0289 19.7302 35.854 19.8195 35.6566 19.9416L35.6052 19.9727C35.4445 20.0778 35.2888 20.1971 35.146 20.3265L35.0772 20.3898C34.9385 20.5215 34.8081 20.6662 34.6914 20.8177L34.635 20.8934C34.5176 21.0539 34.4144 21.2212 34.3275 21.3936L34.2903 21.4716C34.2051 21.6508 34.1335 21.8368 34.0771 22.0267L34.0573 22.1075C34.0224 22.2375 33.9958 22.3641 33.9767 22.4811H29.8897V8.89553H37.3579L42.7569 14.0062V22.4805Z" fill="#4F75D2"/>
<path d="M16.5259 4.10193L11.9727 13.0631L15.8252 13.3777L15.9285 20.1155L20.1794 11.2801L16.5255 10.7837V4.10193H16.5259ZM19.2574 11.7753L16.5057 17.4941L16.4342 12.8108L12.9374 12.5253L15.9088 6.67748V11.3194L19.2574 11.7753Z" fill="#4F75D2"/>
</g>
<defs>
<clipPath id="clip0_57_68">
<rect width="44" height="26" fill="white" transform="translate(0.167969 0.935059)"/>
</clipPath>
</defs>
</svg>
