<svg width="40" height="40" viewBox="0 0 40 40" fill="none" xmlns="http://www.w3.org/2000/svg">
<path d="M21.0303 0.790405C15.8685 0.790405 10.9358 2.94523 7.40357 6.74194C7.33603 6.8108 7.28286 6.89258 7.2472 6.98252C7.21153 7.07246 7.19409 7.16873 7.19591 7.26558C7.19773 7.36243 7.21877 7.45796 7.25779 7.54647C7.2968 7.63498 7.35301 7.71471 7.42308 7.78095C7.49316 7.84719 7.57568 7.89853 7.66577 7.93206C7.75587 7.96559 7.85171 7.98058 7.94764 7.97613C8.04357 7.97167 8.13765 7.94787 8.22431 7.90613C8.31097 7.8644 8.38847 7.80557 8.45221 7.73312C11.7132 4.22796 16.2649 2.24043 21.0303 2.24043C30.5658 2.24043 38.2803 10.0221 38.2803 19.6404C38.2803 27.7259 32.7684 34.7382 24.9638 36.5816C24.8701 36.6015 24.7814 36.6401 24.7027 36.6951C24.624 36.7501 24.557 36.8204 24.5056 36.9018C24.4542 36.9833 24.4194 37.0743 24.4034 37.1695C24.3873 37.2647 24.3902 37.3621 24.412 37.4562C24.4338 37.5502 24.474 37.6388 24.5302 37.717C24.5864 37.7951 24.6576 37.8612 24.7394 37.9112C24.8213 37.9613 24.9123 37.9943 25.0069 38.0084C25.1016 38.0225 25.1982 38.0175 25.2909 37.9934C33.738 35.9983 39.7178 28.3914 39.7178 19.6404C39.7178 9.23845 31.3426 0.790405 21.0303 0.790405ZM21.0303 5.14039C20.8397 5.14039 20.6569 5.21683 20.5221 5.35279C20.3873 5.48875 20.3116 5.67312 20.3116 5.8654C20.3116 5.96061 20.3302 6.0549 20.3663 6.14286C20.4024 6.23082 20.4554 6.31077 20.5221 6.37809C20.5888 6.44542 20.6681 6.49878 20.7553 6.53522C20.8425 6.57166 20.9359 6.59041 21.0303 6.59041C21.1247 6.59041 21.2182 6.57166 21.3054 6.53522C21.3926 6.49878 21.4718 6.44542 21.5386 6.37809C21.6053 6.31077 21.6583 6.23082 21.6944 6.14286C21.7305 6.0549 21.7491 5.96061 21.7491 5.8654C21.7491 5.67312 21.6734 5.48875 21.5386 5.35279C21.4038 5.21683 21.221 5.14039 21.0303 5.14039ZM14.1854 6.98545C14.0649 6.98856 13.9471 7.02222 13.8428 7.08328C13.678 7.17952 13.5578 7.33781 13.5086 7.52339C13.4593 7.70898 13.4851 7.90673 13.5803 8.07313C13.6755 8.23961 13.8324 8.36116 14.0164 8.41105C14.2004 8.46094 14.3965 8.43503 14.5616 8.33913C14.6434 8.29148 14.7151 8.22802 14.7726 8.1524C14.83 8.07678 14.8722 7.9905 14.8965 7.89844C14.9209 7.80638 14.9271 7.71042 14.9146 7.61596C14.9022 7.52151 14.8714 7.43041 14.8241 7.34795C14.7597 7.23529 14.6664 7.14222 14.554 7.07843C14.4416 7.01465 14.3143 6.98252 14.1854 6.98545ZM27.8248 6.98695C27.7046 6.99268 27.5878 7.02873 27.485 7.09181C27.3823 7.1549 27.2968 7.243 27.2366 7.34803C27.1892 7.43049 27.1585 7.52151 27.146 7.61596C27.1336 7.71042 27.1398 7.80647 27.1641 7.89852C27.1885 7.99058 27.2306 8.07687 27.2881 8.15249C27.3456 8.22811 27.4173 8.29156 27.4991 8.33922C27.6642 8.43512 27.8603 8.46094 28.0443 8.41105C28.2283 8.36116 28.3851 8.23961 28.4803 8.07313C28.5755 7.90673 28.6013 7.70906 28.5521 7.52348C28.5029 7.33789 28.3827 7.17961 28.2178 7.08337C28.0986 7.01402 27.9622 6.98065 27.8248 6.9872V6.98695ZM6.25244 10.6303C6.08776 10.6358 5.92427 10.6523 5.76251 10.6742C3.82149 10.9493 2.12966 12.3631 1.5918 14.387C1.58934 14.3943 1.58699 14.4016 1.58476 14.4089C1.57249 14.4623 1.56167 14.5166 1.55108 14.5703C1.55012 14.5739 1.54918 14.5776 1.54828 14.5813L1.54684 14.595L1.5454 14.6005C1.52636 14.6819 1.50852 14.7643 1.49346 14.8468C1.49267 14.8495 1.49288 14.8522 1.49202 14.8577C0.278006 19.8821 1.02068 25.1792 3.5486 29.6749C3.56266 29.7141 3.58005 29.7519 3.60056 29.7881C3.60104 29.789 3.60152 29.7899 3.602 29.7908C6.19087 34.296 10.398 37.6248 15.3519 39.0898C15.505 39.1487 15.6597 39.2035 15.8179 39.2471C15.8194 39.2471 15.8208 39.2471 15.8223 39.2471C18.4977 39.9699 21.2664 38.3575 21.9836 35.6589C21.9836 35.6584 21.9836 35.6579 21.9836 35.6574C22.1366 35.0733 22.1853 34.4661 22.1268 33.8648C22.1143 33.7375 22.0686 33.6157 21.9944 33.5119C21.9202 33.4081 21.8201 33.326 21.7042 33.2739L14.8438 30.1941C14.6885 30.1244 14.5137 30.1124 14.3505 30.1604C14.1873 30.2083 14.0463 30.3131 13.9524 30.4561L12.7633 32.2714C10.8108 30.9766 9.13636 29.2965 7.95951 27.253L7.95807 27.2516C6.78782 25.2019 6.18016 22.8973 6.04187 20.5425L8.20514 20.4107C8.37499 20.4002 8.53565 20.3293 8.65852 20.2105C8.78139 20.0918 8.85851 19.9329 8.87616 19.7622L9.66089 12.2318C9.67408 12.1042 9.65348 11.9754 9.60119 11.8585C9.54891 11.7416 9.46682 11.6407 9.36329 11.5662C8.87613 11.2158 8.33218 10.9561 7.75452 10.7988C7.75404 10.7988 7.75356 10.7988 7.75308 10.7988C7.25144 10.6632 6.7465 10.61 6.25241 10.6302L6.25244 10.6303ZM32.8406 12.0279C32.7201 12.031 32.6023 12.0647 32.4981 12.1257C32.333 12.2217 32.2125 12.3799 32.163 12.5655C32.1135 12.7511 32.1391 12.9489 32.2341 13.1155C32.2814 13.198 32.3443 13.2704 32.4193 13.3283C32.4942 13.3863 32.5798 13.4288 32.6711 13.4533C32.7623 13.4779 32.8575 13.4841 32.9512 13.4716C33.0448 13.459 33.1351 13.428 33.2168 13.3803C33.3816 13.284 33.5019 13.1257 33.5511 12.9402C33.6003 12.7546 33.5745 12.5568 33.4793 12.3904C33.4149 12.2778 33.3216 12.1847 33.2092 12.1209C33.0968 12.0571 32.9695 12.025 32.8406 12.0279H32.8406ZM6.65955 12.0803C6.89849 12.094 7.14047 12.1342 7.38111 12.1992C7.66763 12.2773 7.92188 12.434 8.17987 12.5801L7.51025 19.0003L5.18274 19.142C4.9983 19.1533 4.82525 19.2358 4.69951 19.3723C4.57378 19.5089 4.50502 19.6891 4.50751 19.8755C4.5451 22.7217 5.30425 25.5115 6.7129 27.9779C6.71337 27.9784 6.71385 27.9788 6.71433 27.9793C8.1301 30.4385 10.1469 32.4918 12.571 33.9436C12.7297 34.0385 12.9185 34.0681 13.0983 34.0264C13.2781 33.9848 13.4351 33.875 13.5368 33.7198L14.8157 31.7685L20.6654 34.3952C20.6625 34.695 20.6697 34.9965 20.5938 35.2873C20.0765 37.2271 18.1183 38.3673 16.1943 37.8474C16.0671 37.8123 15.9422 37.7705 15.8194 37.7214C15.7987 37.7131 15.7776 37.7058 15.7563 37.6995C11.1574 36.3395 7.25306 33.2489 4.84867 29.0674C4.84815 29.0667 4.84798 29.0652 4.84723 29.0647C2.45175 24.8653 1.75064 19.8985 2.89032 15.192C2.89293 15.1821 2.89533 15.1723 2.89752 15.1623V15.1569C2.89902 15.1515 2.90046 15.1459 2.90184 15.1404C2.91556 15.0613 2.93189 14.9813 2.951 14.9026C2.9542 14.889 2.95701 14.8753 2.95943 14.8615L2.96086 14.8533L2.96374 14.8423C2.9695 14.8149 2.97461 14.7884 2.98056 14.7618V14.7603C3.36794 13.3047 4.56668 12.2992 5.95382 12.1067C6.18508 12.0746 6.421 12.065 6.65994 12.0793L6.65955 12.0803ZM26.807 14.5568C26.6901 14.5535 26.5742 14.5789 26.4692 14.631C26.3643 14.6831 26.2735 14.7602 26.2048 14.8556L21.8923 20.6556C21.8123 20.7634 21.7636 20.8915 21.7517 21.0256C21.7398 21.1597 21.7651 21.2945 21.8249 21.4148C21.8846 21.5352 21.9764 21.6364 22.09 21.7072C22.2035 21.7779 22.3344 21.8153 22.4678 21.8153H27.4991V23.2653C27.4977 23.3614 27.5153 23.4567 27.5509 23.5459C27.5864 23.635 27.6391 23.7162 27.706 23.7846C27.7729 23.853 27.8525 23.9074 27.9404 23.9444C28.0283 23.9815 28.1226 24.0006 28.2178 24.0006C28.3131 24.0006 28.4074 23.9815 28.4953 23.9444C28.5831 23.9074 28.6628 23.853 28.7297 23.7846C28.7966 23.7162 28.8493 23.635 28.8848 23.5459C28.9203 23.4567 28.9379 23.3614 28.9366 23.2653V21.8153H29.6553C29.7506 21.8166 29.8451 21.7989 29.9334 21.763C30.0218 21.7272 30.1022 21.674 30.17 21.6065C30.2378 21.539 30.2916 21.4587 30.3283 21.3701C30.3651 21.2815 30.384 21.1864 30.384 21.0903C30.384 20.9942 30.3651 20.8992 30.3283 20.8106C30.2916 20.722 30.2378 20.6415 30.17 20.5741C30.1022 20.5066 30.0218 20.4535 29.9334 20.4176C29.8451 20.3818 29.7506 20.364 29.6553 20.3653H28.9366V18.9153C28.9379 18.8184 28.9199 18.7221 28.8837 18.6322C28.8474 18.5423 28.7937 18.4607 28.7256 18.3922C28.6576 18.3237 28.5766 18.2696 28.4874 18.2332C28.3983 18.1969 28.3028 18.1789 28.2066 18.1804C28.0162 18.1834 27.8348 18.2624 27.7022 18.4002C27.5695 18.538 27.4965 18.7233 27.4991 18.9153V20.3653H23.9053L27.3559 15.725C27.437 15.6191 27.4876 15.4926 27.5018 15.3595C27.5161 15.2265 27.4936 15.0921 27.4367 14.9711C27.3799 14.8502 27.291 14.7474 27.1798 14.6743C27.0687 14.6012 26.9397 14.5605 26.807 14.5568ZM15.9991 14.565C14.4188 14.565 13.1241 15.871 13.1241 17.4651C13.1227 17.5611 13.1403 17.6566 13.1759 17.7457C13.2114 17.8349 13.2641 17.916 13.331 17.9844C13.3979 18.0528 13.4775 18.1072 13.5654 18.1443C13.6533 18.1813 13.7476 18.2004 13.8428 18.2004C13.9381 18.2004 14.0324 18.1813 14.1203 18.1443C14.2081 18.1072 14.2878 18.0528 14.3547 17.9844C14.4216 17.916 14.4743 17.8349 14.5098 17.7457C14.5453 17.6566 14.5629 17.5611 14.5616 17.4651C14.5616 16.6492 15.1903 16.0151 15.9991 16.0151H17.4366C18.2454 16.0151 18.8741 16.6492 18.8741 17.4651C18.8741 18.2809 18.2454 18.9151 17.4366 18.9151C17.4301 18.915 17.4235 18.915 17.417 18.9151C16.7447 18.9343 15.6982 18.9014 14.7469 19.4886C13.7956 20.076 13.1241 21.3036 13.1241 23.2651C13.1241 23.4574 13.1998 23.6417 13.3346 23.7777C13.4694 23.9137 13.6522 23.9901 13.8428 23.9901H19.5928C19.6881 23.9914 19.7826 23.9736 19.8709 23.9377C19.9593 23.9019 20.0397 23.8487 20.1075 23.7813C20.1753 23.7138 20.2291 23.6335 20.2658 23.5449C20.3026 23.4563 20.3215 23.3611 20.3215 23.2651C20.3215 23.169 20.3026 23.074 20.2658 22.9854C20.2291 22.8967 20.1753 22.8163 20.1075 22.7489C20.0397 22.6814 19.9593 22.6283 19.8709 22.5924C19.7826 22.5566 19.6881 22.5388 19.5928 22.5401H14.6767C14.8059 21.5444 15.0992 20.9724 15.4979 20.7262C15.9989 20.4168 16.75 20.3845 17.4562 20.3651H17.4366C19.0169 20.3651 20.3116 19.0591 20.3116 17.4651C20.3116 15.871 19.0169 14.565 17.4366 14.565H15.9991ZM34.6866 18.9151C34.5922 18.9151 34.4987 18.9339 34.4115 18.9703C34.3243 19.0067 34.2451 19.0601 34.1783 19.1274C34.1116 19.1947 34.0587 19.2747 34.0225 19.3626C33.9864 19.4506 33.9678 19.5449 33.9678 19.6401C33.9678 19.8324 34.0436 20.0168 34.1784 20.1527C34.3132 20.2887 34.496 20.3651 34.6866 20.3651C34.8772 20.3651 35.06 20.2887 35.1948 20.1527C35.3296 20.0168 35.4053 19.8324 35.4053 19.6401C35.4053 19.5449 35.3868 19.4506 35.3506 19.3626C35.3145 19.2747 35.2616 19.1947 35.1948 19.1274C35.1281 19.0601 35.0489 19.0067 34.9616 18.9703C34.8744 18.9339 34.781 18.9151 34.6866 18.9151ZM32.8237 25.804C32.7033 25.8095 32.5862 25.8455 32.4832 25.9086C32.3802 25.9717 32.2945 26.0599 32.2341 26.1651C32.1391 26.3317 32.1135 26.5295 32.163 26.7151C32.2125 26.9007 32.333 27.0589 32.498 27.1549C32.663 27.2509 32.859 27.2769 33.043 27.2273C33.227 27.1777 33.3839 27.0564 33.4793 26.8901C33.5745 26.7237 33.6003 26.5261 33.5511 26.3405C33.5019 26.1549 33.3816 25.9966 33.2168 25.9004C33.0976 25.831 32.9612 25.7977 32.8237 25.8042L32.8237 25.804ZM3.51923 29.5734H3.52067C3.5216 29.5771 3.52256 29.5807 3.52355 29.5844L3.51923 29.5734ZM27.8416 30.845C27.7213 30.8476 27.6035 30.8807 27.4991 30.9412C27.4173 30.9888 27.3456 31.0523 27.2881 31.1279C27.2306 31.2035 27.1885 31.2899 27.1641 31.3819C27.1398 31.474 27.1336 31.57 27.146 31.6644C27.1585 31.7589 27.1892 31.85 27.2366 31.9324C27.332 32.0987 27.4889 32.2199 27.6729 32.2695C27.8569 32.3191 28.0529 32.2931 28.2179 32.1971C28.3827 32.1009 28.5029 31.9426 28.5521 31.757C28.6013 31.5714 28.5755 31.3737 28.4803 31.2073C28.4159 31.0947 28.3226 31.0016 28.2102 30.9378C28.0979 30.874 27.9705 30.8419 27.8416 30.8448V30.845Z" fill="#4F75D2"/>
</svg>
