<svg width="26" height="36" viewBox="0 0 26 36" fill="none" xmlns="http://www.w3.org/2000/svg">
<path d="M18.2505 10.7735C17.9956 10.2351 17.4858 9.91199 16.925 9.91199C16.3133 9.91199 15.8035 10.2889 15.5996 10.7735C15.1407 10.4504 14.529 10.4504 14.0192 10.7197C13.5094 11.0428 13.2545 11.6351 13.2545 12.1735C12.6937 12.1197 12.1329 12.4428 11.878 12.9812C11.6741 13.3581 11.6231 13.7889 11.725 14.1658C11.776 14.3274 11.827 14.4889 11.929 14.6504C11.4192 14.9197 11.1133 15.4581 11.1133 16.0504C11.1133 16.6966 11.4701 17.2351 11.929 17.4504C11.6231 17.9351 11.5721 18.5812 11.878 19.1197C12.0819 19.4966 12.4898 19.8197 12.8976 19.8735L11.1133 25.4197L13.1015 24.9889L14.376 26.4966L15.9054 21.7581C16.1603 22.0274 16.5682 22.2428 16.976 22.2428C17.3839 22.2428 17.7407 22.0812 17.9956 21.812L19.525 26.4966L20.7996 24.9889L22.7878 25.4197L20.9015 19.9274C21.3603 19.8735 21.7172 19.6043 21.9721 19.1735C22.176 18.7966 22.227 18.3658 22.125 17.9889C22.0741 17.8274 22.0231 17.6658 21.9211 17.5043C22.4309 17.2351 22.7368 16.6966 22.7368 16.1043C22.7368 15.4581 22.3799 14.9197 21.9211 14.7043C22.227 14.2197 22.278 13.5735 21.9721 13.0351C21.6662 12.4966 21.1564 12.2274 20.5956 12.2274C20.5956 12.0658 20.5956 11.9043 20.5447 11.7428C20.4427 11.312 20.1878 10.9889 19.8309 10.7735C19.3211 10.4504 18.7094 10.4504 18.2505 10.7735ZM13.9682 24.9889L13.2545 24.1812L12.1329 24.4504L13.3054 20.7889C13.4074 21.0581 13.6113 21.2735 13.9172 21.4351C14.2741 21.6504 14.6819 21.7043 15.0388 21.5966L13.9682 24.9889ZM20.4427 24.1812L19.729 24.9889L18.6074 21.5428C19.0152 21.6504 19.4231 21.6504 19.7799 21.3812C20.0349 21.2197 20.2388 21.0043 20.3407 20.7889L21.5133 24.3966L20.4427 24.1812ZM20.1368 13.1966L20.1878 13.1428C20.1878 13.1428 20.2388 13.0889 20.2898 13.0889C20.6466 12.8735 21.1054 13.0351 21.3094 13.3581C21.5133 13.7351 21.4113 14.2197 21.0545 14.4351C21.0035 14.4351 21.0035 14.4889 20.9525 14.4889C20.9015 14.4889 20.9015 14.5428 20.8505 14.5428L21.0545 15.2966C21.1054 15.2966 21.1054 15.2966 21.1564 15.2966C21.1564 15.2966 21.2074 15.2966 21.2584 15.2966C21.6662 15.2966 22.0231 15.6735 22.0231 16.1043C22.0231 16.5351 21.6662 16.912 21.2584 16.912C21.2074 16.912 21.2074 16.912 21.1564 16.912L20.6976 16.8581V17.2351L20.5956 17.5581L20.9015 17.7197C20.9525 17.7197 20.9525 17.7735 21.0035 17.7735C21.1564 17.8812 21.3094 18.0428 21.3603 18.2581C21.4113 18.4735 21.3603 18.6889 21.3094 18.8504C21.1054 19.2274 20.6466 19.3351 20.2898 19.1197C20.2898 19.1197 20.2388 19.0658 20.1878 19.0658L20.1368 19.012L19.627 19.6043L19.678 19.6581C19.678 19.6581 19.729 19.712 19.729 19.7658C19.9329 20.1428 19.8309 20.6274 19.4741 20.8428C19.1172 21.0581 18.6584 20.8966 18.4545 20.5735C18.4545 20.5197 18.4035 20.5197 18.4035 20.4658C18.4035 20.412 18.3525 20.412 18.3525 20.3581L17.6388 20.5735C17.6388 20.6274 17.6388 20.6274 17.6388 20.6812C17.6388 20.7351 17.6388 20.7351 17.6388 20.7889C17.6388 21.2197 17.2819 21.5966 16.8741 21.5966C16.4662 21.5966 16.1094 21.2197 16.1094 20.7889C16.1094 20.7351 16.1094 20.7351 16.1094 20.6812C16.1094 20.6274 16.1094 20.6274 16.1094 20.6274V20.5735L15.9054 20.3581L15.4466 20.2504C15.4466 20.3043 15.4466 20.3043 15.3956 20.3043C15.3956 20.3581 15.3447 20.3581 15.3447 20.412C15.1407 20.7889 14.6819 20.8966 14.325 20.6812C13.9682 20.4658 13.8662 19.9812 14.0701 19.6043C14.0701 19.6043 14.1211 19.5505 14.1211 19.4966L14.1721 19.4428L13.6113 18.9043L13.5603 18.9581L13.5094 19.012C13.1525 19.2274 12.6937 19.0658 12.4898 18.7428C12.2858 18.3658 12.3878 17.8812 12.7447 17.6658C12.7956 17.6658 12.7956 17.612 12.8466 17.612C12.8976 17.612 12.8976 17.5581 12.9486 17.5581L12.7447 16.8043C12.6937 16.8043 12.6937 16.8043 12.6427 16.8043C12.5917 16.8043 12.5917 16.8043 12.5407 16.8043C12.1329 16.8043 11.776 16.4274 11.776 15.9966C11.776 15.5658 12.1329 15.1889 12.5407 15.1889C12.5917 15.1889 12.5917 15.1889 12.6427 15.1889H12.6937H12.7447L12.8976 14.3812C12.8976 14.3812 12.8466 14.3812 12.8466 14.3274C12.7956 14.3274 12.7956 14.2735 12.7447 14.2735C12.5917 14.1658 12.4388 14.0043 12.3878 13.7889C12.3368 13.5735 12.3878 13.3581 12.4388 13.1966C12.6427 12.8197 13.1015 12.712 13.4584 12.9274C13.5094 12.9274 13.5094 12.9812 13.5603 12.9812L13.6113 13.0351L14.1211 12.4428L14.0701 12.3889C14.0701 12.3889 14.0192 12.3351 14.0192 12.2812C13.8152 11.9043 13.9172 11.4197 14.2741 11.2043C14.6309 10.9889 15.0898 11.1504 15.2937 11.4735C15.2937 11.5274 15.3447 11.5274 15.3447 11.5812C15.3447 11.6351 15.3956 11.6351 15.3956 11.6889L16.1094 11.4735C16.1094 11.4197 16.1094 11.4197 16.1094 11.3658C16.1094 11.312 16.1094 11.312 16.1094 11.2581C16.1094 10.8274 16.4662 10.4504 16.8741 10.4504C17.2819 10.4504 17.6388 10.8274 17.6388 11.2581C17.6388 11.312 17.6388 11.312 17.6388 11.3658L17.5878 11.6889L18.2505 11.9043L18.4035 11.5812C18.4035 11.5274 18.4545 11.5274 18.4545 11.4735C18.6584 11.0966 19.1172 10.9889 19.4741 11.2043C19.627 11.312 19.7799 11.4735 19.8309 11.6889C19.8819 11.9043 19.8309 12.1197 19.729 12.2812C19.729 12.3351 19.678 12.3351 19.678 12.3351C19.678 12.3351 19.627 12.3889 19.576 12.4428L20.1368 13.1966Z" fill="#4F75D2"/>
<path d="M16.8754 12.8197C15.1931 12.8197 13.7656 14.2735 13.7656 16.1043C13.7656 17.8812 15.1421 19.3889 16.8754 19.3889C18.6088 19.3889 19.9852 17.9351 19.9852 16.1043C19.9852 14.2735 18.6088 12.8197 16.8754 12.8197ZM16.8754 18.5274C15.6009 18.5274 14.5303 17.3966 14.5303 16.0505C14.5303 14.7043 15.6009 13.5735 16.8754 13.5735C18.1499 13.5735 19.2205 14.7043 19.2205 16.0505C19.2205 17.4505 18.1499 18.5274 16.8754 18.5274Z" fill="#4F75D2"/>
<path d="M13.4055 3.18115H12.5898V3.98884H13.4055V3.18115Z" fill="#4F75D2"/>
<path d="M19.7798 5.01198V4.58121C19.7798 3.77352 19.117 3.07352 18.3523 3.07352H15.8543C15.7014 1.61967 14.4778 0.435059 12.9994 0.435059C11.521 0.435059 10.2974 1.61967 10.1445 3.07352H7.64646C6.88175 3.07352 6.21901 3.77352 6.21901 4.58121V4.95814H0.152344V35.4351H25.7955V5.01198H19.7798ZM6.93274 4.58121C6.93274 4.20429 7.23862 3.88121 7.59548 3.88121H10.8582V3.50429C10.8582 2.26583 11.8269 1.24275 12.9994 1.24275C14.172 1.24275 15.1406 2.26583 15.1406 3.50429V3.88121H18.4033C18.7602 3.88121 19.0661 4.20429 19.0661 4.58121V6.46583H6.93274V4.58121ZM25.0818 34.6274H0.91705V5.76583H6.16803V7.21967H19.7798V5.76583H25.0308V34.6274H25.0818Z" fill="#4F75D2"/>
<path d="M23.0943 31.6658H2.95703V32.4735H23.0943V31.6658Z" fill="#4F75D2"/>
<path d="M17.4864 29.2966H2.95703V30.1043H17.4864V29.2966Z" fill="#4F75D2"/>
<path d="M10.1962 11.4197H2.95703V12.2274H10.1962V11.4197Z" fill="#4F75D2"/>
<path d="M7.74908 13.7351H6.98438V14.5428H7.74908V13.7351Z" fill="#4F75D2"/>
<path d="M3.72174 13.7351H2.95703V14.5428H3.72174V13.7351Z" fill="#4F75D2"/>
<path d="M5.71002 13.7351H4.94531V14.5428H5.71002V13.7351Z" fill="#4F75D2"/>
</svg>
