<svg width="34" height="35" viewBox="0 0 34 35" fill="none" xmlns="http://www.w3.org/2000/svg">
<g clip-path="url(#clip0_57_10)">
<path d="M22.8064 31.3191V1.74204C22.8064 1.6028 22.7521 1.46927 22.6554 1.37081C22.5587 1.27235 22.4276 1.21704 22.2908 1.21704H6.14969C6.01247 1.21729 5.88094 1.27292 5.78394 1.37174L0.149875 7.14324C0.0538212 7.24166 -6.26343e-05 7.37479 5.46383e-08 7.51354V31.3191C5.46383e-08 31.4584 0.0543247 31.5919 0.151023 31.6904C0.247722 31.7888 0.378873 31.8441 0.515625 31.8441H22.2908C22.4276 31.8441 22.5587 31.7888 22.6554 31.6904C22.7521 31.5919 22.8064 31.4584 22.8064 31.3191ZM21.7752 30.7941H1.03125V7.72914L5.6375 3.01464V6.95914H2.69225C2.5555 6.95914 2.42435 7.01445 2.32765 7.11291C2.23095 7.21137 2.17663 7.3449 2.17663 7.48414C2.17663 7.62338 2.23095 7.75692 2.32765 7.85537C2.42435 7.95383 2.5555 8.00914 2.69225 8.00914H6.14969C6.28644 8.00914 6.41759 7.95383 6.51429 7.85537C6.61099 7.75692 6.66531 7.62338 6.66531 7.48414V2.26914H21.7752V30.7941Z" fill="#4F75D2"/>
<path d="M5.63672 15.6163C5.63672 15.7555 5.69104 15.8891 5.78774 15.9875C5.88444 16.086 6.01559 16.1413 6.15234 16.1413H18.0275C18.1643 16.1413 18.2954 16.086 18.3921 15.9875C18.4888 15.8891 18.5432 15.7555 18.5432 15.6163C18.5432 15.4771 18.4888 15.3435 18.3921 15.2451C18.2954 15.1466 18.1643 15.0913 18.0275 15.0913H6.14891C6.01275 15.0922 5.88248 15.148 5.78652 15.2463C5.69057 15.3447 5.63672 15.4777 5.63672 15.6163Z" fill="#4F75D2"/>
<path d="M18.0292 18.0383H12.0898C11.9531 18.0383 11.8219 18.0936 11.7252 18.1921C11.6285 18.2906 11.5742 18.4241 11.5742 18.5633C11.5742 18.7026 11.6285 18.8361 11.7252 18.9346C11.8219 19.033 11.9531 19.0883 12.0898 19.0883H18.0292C18.1659 19.0883 18.2971 19.033 18.3938 18.9346C18.4905 18.8361 18.5448 18.7026 18.5448 18.5633C18.5448 18.4241 18.4905 18.2906 18.3938 18.1921C18.2971 18.0936 18.1659 18.0383 18.0292 18.0383Z" fill="#4F75D2"/>
<path d="M6.14844 19.0883H10.2556C10.3923 19.0883 10.5235 19.033 10.6202 18.9346C10.7169 18.8361 10.7712 18.7026 10.7712 18.5633C10.7712 18.4241 10.7169 18.2906 10.6202 18.1921C10.5235 18.0936 10.3923 18.0383 10.2556 18.0383H6.14844C6.01169 18.0383 5.88053 18.0936 5.78384 18.1921C5.68714 18.2906 5.63281 18.4241 5.63281 18.5633C5.63281 18.7026 5.68714 18.8361 5.78384 18.9346C5.88053 19.033 6.01169 19.0883 6.14844 19.0883Z" fill="#4F75D2"/>
<path d="M18.0271 20.986H6.14844C6.01169 20.986 5.88053 21.0413 5.78384 21.1397C5.68714 21.2382 5.63281 21.3717 5.63281 21.511C5.63281 21.6502 5.68714 21.7837 5.78384 21.8822C5.88053 21.9806 6.01169 22.036 6.14844 22.036H18.0271C18.1638 22.036 18.295 21.9806 18.3917 21.8822C18.4884 21.7837 18.5427 21.6502 18.5427 21.511C18.5427 21.3717 18.4884 21.2382 18.3917 21.1397C18.295 21.0413 18.1638 20.986 18.0271 20.986Z" fill="#4F75D2"/>
<path d="M18.0285 23.9337H16.1523C16.0156 23.9337 15.8844 23.989 15.7877 24.0875C15.691 24.1859 15.6367 24.3195 15.6367 24.4587C15.6367 24.598 15.691 24.7315 15.7877 24.8299C15.8844 24.9284 16.0156 24.9837 16.1523 24.9837H18.0285C18.1653 24.9837 18.2964 24.9284 18.3931 24.8299C18.4898 24.7315 18.5442 24.598 18.5442 24.4587C18.5442 24.3195 18.4898 24.1859 18.3931 24.0875C18.2964 23.989 18.1653 23.9337 18.0285 23.9337Z" fill="#4F75D2"/>
<path d="M6.14844 24.9837H14.362C14.4988 24.9837 14.6299 24.9284 14.7266 24.8299C14.8233 24.7315 14.8776 24.598 14.8776 24.4587C14.8776 24.3195 14.8233 24.1859 14.7266 24.0875C14.6299 23.989 14.4988 23.9337 14.362 23.9337H6.14844C6.01169 23.9337 5.88053 23.989 5.78384 24.0875C5.68714 24.1859 5.63281 24.3195 5.63281 24.4587C5.63281 24.598 5.68714 24.7315 5.78384 24.8299C5.88053 24.9284 6.01169 24.9837 6.14844 24.9837Z" fill="#4F75D2"/>
<path d="M18.0271 26.8807H6.14844C6.01169 26.8807 5.88053 26.936 5.78384 27.0345C5.68714 27.133 5.63281 27.2665 5.63281 27.4057C5.63281 27.545 5.68714 27.6785 5.78384 27.777C5.88053 27.8754 6.01169 27.9307 6.14844 27.9307H18.0271C18.1638 27.9307 18.295 27.8754 18.3917 27.777C18.4884 27.6785 18.5427 27.545 18.5427 27.4057C18.5427 27.2665 18.4884 27.133 18.3917 27.0345C18.295 26.936 18.1638 26.8807 18.0271 26.8807Z" fill="#4F75D2"/>
<path d="M25.0429 4.19788H23.9161C23.7793 4.19788 23.6482 4.25319 23.5515 4.35164C23.4548 4.4501 23.4004 4.58364 23.4004 4.72288C23.4004 4.86211 23.4548 4.99565 23.5515 5.09411C23.6482 5.19256 23.7793 5.24788 23.9161 5.24788H24.5272V33.7701H3.78125V33.0701C3.78125 32.9308 3.72693 32.7973 3.63023 32.6988C3.53353 32.6004 3.40238 32.5451 3.26562 32.5451C3.12887 32.5451 2.99772 32.6004 2.90102 32.6988C2.80432 32.7973 2.75 32.9308 2.75 33.0701V34.293C2.75 34.4322 2.80432 34.5658 2.90102 34.6642C2.99772 34.7627 3.12887 34.818 3.26562 34.818H25.0429C25.1796 34.818 25.3108 34.7627 25.4075 34.6642C25.5042 34.5658 25.5585 34.4322 25.5585 34.293V4.72008C25.5578 4.58132 25.5031 4.44851 25.4065 4.35065C25.3099 4.2528 25.1792 4.19787 25.0429 4.19788Z" fill="#4F75D2"/>
<path d="M31.7472 8.78642H31.1896V8.11582C31.1894 7.60829 30.9916 7.12154 30.6395 6.76226C30.2874 6.40299 29.8098 6.20052 29.3113 6.19922C28.8132 6.20014 28.3357 6.4021 27.9835 6.76082C27.6313 7.11955 27.4331 7.6058 27.4324 8.11302L27.418 24.6064C27.418 24.6566 27.4249 24.7066 27.4386 24.7548L28.7998 29.4665C28.8312 29.5753 28.8963 29.6707 28.9854 29.7386C29.0745 29.8065 29.1829 29.8432 29.2942 29.8431C29.4054 29.8432 29.5136 29.8067 29.6027 29.7389C29.6918 29.6711 29.757 29.5758 29.7885 29.4672L31.1573 24.7576C31.1718 24.7095 31.1793 24.6595 31.1793 24.6092L31.1917 9.83922H31.7499C31.809 9.8394 31.8657 9.86346 31.9075 9.9061C31.9492 9.94874 31.9727 10.0065 31.9727 10.0667V13.552C31.9727 13.6913 32.027 13.8248 32.1237 13.9232C32.2204 14.0217 32.3515 14.077 32.4883 14.077C32.625 14.077 32.7562 14.0217 32.8529 13.9232C32.9496 13.8248 33.0039 13.6913 33.0039 13.552V10.0639C33.0038 9.896 32.9712 9.72975 32.908 9.57466C32.8448 9.41958 32.7522 9.27869 32.6355 9.16005C32.5188 9.04142 32.3803 8.94736 32.2278 8.88325C32.0754 8.81914 31.9121 8.78624 31.7472 8.78642ZM28.7098 7.50262C28.7884 7.42214 28.882 7.35832 28.985 7.31483C29.088 7.27134 29.1985 7.24904 29.31 7.24922C29.5353 7.24959 29.7512 7.34098 29.9104 7.50333C30.0696 7.66568 30.159 7.88571 30.159 8.11512L30.1453 24.0835H28.4472L28.4554 14.0182H29.1848C29.3216 14.0182 29.4527 13.9629 29.5494 13.8644C29.6461 13.766 29.7005 13.6325 29.7005 13.4932C29.7005 13.354 29.6461 13.2204 29.5494 13.122C29.4527 13.0235 29.3216 12.9682 29.1848 12.9682H28.4561L28.4637 8.11372C28.4629 8.00034 28.4843 7.88793 28.5265 7.78303C28.5688 7.67812 28.6311 7.58281 28.7098 7.50262ZM29.2928 27.4631L28.6204 25.1321H29.9707L29.2928 27.4631Z" fill="#4F75D2"/>
<path d="M9.44183 9.85814C10.0137 10.8204 10.8916 11.5545 11.9299 11.9385C12.0327 11.9721 12.1433 11.9721 12.2461 11.9385C13.2843 11.5547 14.1622 10.8208 14.7342 9.85884C15.045 9.30654 15.2574 7.09384 15.3344 6.16844C15.3402 6.09775 15.3319 6.02659 15.31 5.95925C15.2881 5.89191 15.253 5.82979 15.2069 5.77662C15.1608 5.72345 15.1045 5.68033 15.0416 5.64986C14.9787 5.61939 14.9104 5.60221 14.8408 5.59934C14.356 5.56996 13.878 5.46904 13.4218 5.29974C13.0581 5.13881 12.7108 4.94186 12.385 4.71174C12.298 4.64957 12.1943 4.61621 12.088 4.61621C11.9817 4.61621 11.878 4.64957 11.791 4.71174C11.4652 4.94186 11.1179 5.13881 10.7543 5.29974C10.298 5.46904 9.82002 5.56996 9.33527 5.59934C9.26565 5.60221 9.19733 5.61939 9.13441 5.64986C9.07149 5.68033 9.01528 5.72345 8.96916 5.77662C8.92304 5.82979 8.88796 5.89191 8.86605 5.95925C8.84414 6.02659 8.83583 6.09775 8.84164 6.16844C8.91864 7.09384 9.13108 9.30654 9.44183 9.85814ZM11.1365 6.27554C11.4674 6.13523 11.7857 5.96613 12.088 5.77014C12.3914 5.96679 12.7109 6.13636 13.043 6.27694C13.4355 6.4292 13.8437 6.53581 14.2598 6.59474C14.2019 7.52031 14.061 8.43855 13.8391 9.33804C13.4258 10.0241 12.8131 10.5623 12.086 10.878C11.3587 10.5643 10.7467 10.0256 10.337 9.33804C10.1138 8.43804 9.97247 7.51902 9.91483 6.59264C10.3325 6.53417 10.7423 6.4278 11.1365 6.27554Z" fill="#4F75D2"/>
<path d="M11.7865 8.8669C11.8343 8.91574 11.8911 8.9545 11.9536 8.98095C12.0161 9.0074 12.0832 9.02102 12.1509 9.02102C12.2186 9.02102 12.2856 9.0074 12.3481 8.98095C12.4107 8.9545 12.4675 8.91574 12.5152 8.8669L13.6235 7.7385C13.7146 7.63897 13.7642 7.50734 13.7618 7.37133C13.7594 7.23532 13.7053 7.10555 13.6109 7.00936C13.5164 6.91317 13.3889 6.85807 13.2553 6.85567C13.1218 6.85327 12.9925 6.90376 12.8947 6.99649L12.1509 7.7532L11.9632 7.56069C11.916 7.50911 11.859 7.46774 11.7958 7.43905C11.7325 7.41035 11.6643 7.39492 11.595 7.39368C11.5258 7.39244 11.457 7.4054 11.3928 7.43181C11.3286 7.45821 11.2703 7.49752 11.2213 7.54737C11.1724 7.59722 11.1338 7.65661 11.1078 7.72198C11.0819 7.78735 11.0692 7.85737 11.0704 7.92786C11.0716 7.99835 11.0868 8.06787 11.115 8.13227C11.1431 8.19667 11.1838 8.25463 11.2344 8.3027L11.7865 8.8669Z" fill="#4F75D2"/>
</g>
<defs>
<clipPath id="clip0_57_10">
<rect width="34" height="34" fill="white" transform="translate(0 0.935059)"/>
</clipPath>
</defs>
</svg>
