<svg width="31" height="35" viewBox="0 0 31 35" fill="none" xmlns="http://www.w3.org/2000/svg">
<path d="M7.61719 18.3644L8.18824 19.6624C9.36604 19.1713 10.7223 19.1713 11.9001 19.6624L12.4711 18.3644C10.9364 17.733 9.15189 17.733 7.61719 18.3644Z" fill="#4F75D2"/>
<path d="M17.6094 18.3644L18.1804 19.6624C19.3582 19.1713 20.7145 19.1713 21.8923 19.6624L22.4633 18.3644C20.9286 17.733 19.1441 17.733 17.6094 18.3644Z" fill="#4F75D2"/>
<path d="M29.6384 14.9968C29.6741 7.24429 23.2855 0.965088 15.3978 0.965088C15.148 0.965088 14.9338 0.965088 14.684 1.00017C7.11756 1.35096 1.1215 7.48985 1.1215 14.9968C0.44338 15.8738 0.0507812 16.9613 0.0507812 18.154V18.5048C0.0507812 20.9252 1.72825 22.9599 3.97677 23.5562C4.04815 29.4495 8.75933 34.2554 14.684 34.6062C14.9338 34.6413 15.148 34.6413 15.3978 34.6413C20.1447 34.6413 24.2134 31.7999 25.9266 27.7306C28.7105 25.9065 30.6378 22.5038 30.7092 18.6451C30.7092 18.61 30.7092 18.5399 30.7092 18.5048V18.154C30.7092 16.9613 30.3166 15.8738 29.6384 14.9968ZM14.684 2.40334C14.9338 2.36826 15.148 2.36826 15.3978 2.36826C17.1824 2.36826 18.8955 2.71906 20.4659 3.38556C19.1454 6.50763 17.1824 9.2789 14.684 11.4889C12.0786 13.8392 8.9021 15.6283 5.4044 16.5754V12.8921C4.36937 12.8921 3.44141 13.1727 2.62052 13.6638C3.29864 7.56001 8.36673 2.71906 14.684 2.40334ZM3.97677 17.4524V22.0829C2.51345 21.5216 1.47841 20.1184 1.47841 18.5048V18.154C1.47841 16.5052 2.51345 15.1372 3.97677 14.5759V17.4524ZM25.3912 23.4159C25.3912 24.6086 25.1771 25.7311 24.7845 26.8186C23.9636 27.3097 23.0357 27.6254 22.1077 27.7657C21.8222 26.8537 21.0013 26.2222 20.0376 26.2222C19.2881 26.2222 18.61 26.6081 18.2531 27.2045C17.3251 27.4851 16.3972 27.6254 15.3978 27.6254C15.148 27.6254 14.9338 27.6254 14.684 27.5903C13.6847 27.5202 12.6853 27.2746 11.7574 26.8887L11.1863 28.1867C12.2927 28.6427 13.4705 28.9233 14.684 28.9935C14.9338 28.9935 15.148 29.0286 15.3978 29.0286C16.2544 29.0286 17.111 28.9233 17.9319 28.7129C18.1103 29.6951 19.0026 30.4318 20.0376 30.4318C20.9299 30.4318 21.6794 29.9056 22.0006 29.1689C22.6074 29.0987 23.1784 28.9935 23.7495 28.783C21.9649 31.4491 18.8955 33.2381 15.3978 33.2381C15.148 33.2381 14.9338 33.2381 14.684 33.203C9.50884 32.8522 5.4044 28.6076 5.4044 23.4159V18.0487C8.86641 17.1718 12.0072 15.523 14.684 13.3832V13.3481C15.4335 12.7518 16.1473 12.0852 16.8255 11.4187C19.3952 12.6816 22.2148 13.5235 25.2128 13.8041C25.3199 14.4005 25.3912 15.0319 25.3912 15.6984V23.4159ZM20.7514 28.327C20.7514 28.7129 20.4302 29.0286 20.0376 29.0286C19.645 29.0286 19.3238 28.7129 19.3238 28.327C19.3238 27.9411 19.645 27.6254 20.0376 27.6254C20.4302 27.6254 20.7514 27.9411 20.7514 28.327ZM17.8248 10.3313C19.4309 8.43699 20.7871 6.33223 21.7508 4.01699C24.9273 5.80604 27.2829 8.89303 27.9967 12.5413C27.8896 12.5413 27.8182 12.5413 27.7111 12.5413C24.1778 12.5413 20.8228 11.7345 17.8248 10.3313ZM26.6404 25.3102C26.7475 24.7489 26.7832 24.1526 26.8189 23.5562C27.3542 23.4159 27.8539 23.2054 28.2822 22.9248C27.8539 23.8368 27.2829 24.6086 26.6404 25.3102ZM29.3172 18.3294C29.3172 18.4697 29.3172 18.61 29.3172 18.7152C29.2458 20.2587 28.2108 21.5567 26.8189 22.0829V15.6984V14.5759C28.2822 15.1372 29.3172 16.5052 29.3172 18.154V18.3294Z" fill="#4F75D2"/>
</svg>
