<svg width="34" height="36" viewBox="0 0 34 36" fill="none" xmlns="http://www.w3.org/2000/svg">
<path d="M33.9727 27.3552H29.0508V25.7052H27.957V27.3552H19.7539V21.8552H20.8477V20.7552H19.7539V19.2411C23.5498 18.0641 26.3164 14.5039 26.3164 10.3052C26.3164 5.1495 22.1459 0.9552 17.0195 0.9552C11.8931 0.9552 7.72266 5.1495 7.72266 10.3052C7.72266 14.5039 10.4893 18.0641 14.2852 19.2411V20.7552H13.1914V21.8552H14.2852V27.3552H6.08203V25.7052H4.98828V27.3552H0.0664062V28.4552H4.98828V32.3052H0.0664062V33.4052H4.98828V35.0552H6.08203V33.4052H27.957V35.0552H29.0508V33.4052H33.9727V32.3052H29.0508V28.4552H33.9727V27.3552ZM8.81641 10.3052C8.81641 5.75615 12.4963 2.0552 17.0195 2.0552C21.5427 2.0552 25.2227 5.75615 25.2227 10.3052C25.2227 14.8543 21.5427 18.5552 17.0195 18.5552C12.4963 18.5552 8.81641 14.8543 8.81641 10.3052ZM15.3789 19.5007C15.9127 19.5964 16.459 19.6552 17.0195 19.6552C17.5801 19.6552 18.1264 19.5964 18.6602 19.5007V20.7552H15.3789V19.5007ZM15.3789 21.8552H18.6602V27.3552H15.3789V21.8552ZM27.957 32.3052H6.08203V28.4552H27.957V32.3052Z" fill="#4F75D2"/>
<path d="M17.0212 11.9552C17.9258 11.9552 18.6619 11.2149 18.6619 10.3052C18.6619 9.39545 17.9258 8.65515 17.0212 8.65515C16.1167 8.65515 15.3806 9.39545 15.3806 10.3052C15.3806 10.4795 15.4151 10.644 15.4648 10.8018L12.375 12.5778L12.9175 13.5326L16.1293 11.6868C16.3869 11.8551 16.692 11.9552 17.0212 11.9552ZM17.0212 9.75515C17.3226 9.75515 17.5681 10.0021 17.5681 10.3052C17.5681 10.6082 17.3226 10.8552 17.0212 10.8552C16.7199 10.8552 16.4744 10.6082 16.4744 10.3052C16.4744 10.0021 16.7199 9.75515 17.0212 9.75515Z" fill="#4F75D2"/>
<path d="M8.26953 29.0052H7.17578V30.1053H8.26953V29.0052Z" fill="#4F75D2"/>
<path d="M8.26953 30.6552H7.17578V31.7551H8.26953V30.6552Z" fill="#4F75D2"/>
<path d="M3.89453 29.0052H2.80078V30.1053H3.89453V29.0052Z" fill="#4F75D2"/>
<path d="M3.89453 30.6552H2.80078V31.7551H3.89453V30.6552Z" fill="#4F75D2"/>
<path d="M31.2383 29.0052H30.1445V30.1053H31.2383V29.0052Z" fill="#4F75D2"/>
<path d="M31.2383 30.6552H30.1445V31.7551H31.2383V30.6552Z" fill="#4F75D2"/>
<path d="M26.8633 29.0052H25.7695V30.1053H26.8633V29.0052Z" fill="#4F75D2"/>
<path d="M26.8633 30.6552H25.7695V31.7551H26.8633V30.6552Z" fill="#4F75D2"/>
<path d="M17.5664 3.15515H16.4727V4.25515H17.5664V3.15515Z" fill="#4F75D2"/>
<path d="M13.9394 3.83855L12.9922 4.38855L13.5391 5.34115L14.4862 4.79115L13.9394 3.83855Z" fill="#4F75D2"/>
<path d="M11.1367 6.2537L10.5898 7.2063L11.537 7.7563L12.0839 6.8037L11.1367 6.2537Z" fill="#4F75D2"/>
<path d="M11.0039 9.75525H9.91016V10.8552H11.0039V9.75525Z" fill="#4F75D2"/>
<path d="M11.5371 12.8544L10.5898 13.4043L11.1366 14.357L12.0839 13.8071L11.5371 12.8544Z" fill="#4F75D2"/>
<path d="M22.5 12.854L21.9531 13.8066L22.9003 14.3566L23.4472 13.404L22.5 12.854Z" fill="#4F75D2"/>
<path d="M24.1289 9.75525H23.0352V10.8552H24.1289V9.75525Z" fill="#4F75D2"/>
<path d="M22.9043 6.25468L21.957 6.80457L22.5038 7.75728L23.4511 7.20739L22.9043 6.25468Z" fill="#4F75D2"/>
<path d="M20.1015 3.83757L19.5547 4.79028L20.502 5.34017L21.0488 4.38746L20.1015 3.83757Z" fill="#4F75D2"/>
<path d="M20.3008 15.2552H13.7383V16.3552H20.3008V15.2552Z" fill="#4F75D2"/>
</svg>
