<svg width="36" height="35" viewBox="0 0 36 35" fill="none" xmlns="http://www.w3.org/2000/svg">
<g clip-path="url(#clip0_56_21)">
<path d="M32.4193 0H7.91927C7.14601 0.000958189 6.40468 0.319153 5.8579 0.884787C5.31112 1.45042 5.00353 2.21731 5.0026 3.01724V26.5517H0.919271C0.764561 26.5517 0.616188 26.6153 0.506792 26.7285C0.397396 26.8416 0.335938 26.9951 0.335938 27.1552V28.362C0.336864 29.162 0.644452 29.9289 1.19123 30.4945C1.73801 31.0601 2.47934 31.3783 3.2526 31.3793H21.3499V34.3965C21.3499 34.5086 21.3801 34.6184 21.4371 34.7138C21.494 34.8091 21.5755 34.8862 21.6724 34.9363C21.7693 34.9864 21.8778 35.0076 21.9857 34.9975C22.0935 34.9875 22.1966 34.9465 22.2833 34.8793L24.2666 33.3405L26.2499 34.8793C26.3507 34.9579 26.4737 35.0003 26.5999 35C26.6904 35.0008 26.7798 34.9802 26.8613 34.9396C26.9586 34.8892 27.0403 34.8116 27.0972 34.7156C27.1541 34.6196 27.1839 34.5091 27.1833 34.3965V31.3793H27.7526C28.5259 31.3783 29.2672 31.0601 29.814 30.4945C30.3608 29.9289 30.6683 29.162 30.6693 28.362V4.82758H34.7526C34.9073 4.82758 35.0557 4.76401 35.1651 4.65084C35.2745 4.53767 35.3359 4.38418 35.3359 4.22413V3.01724C35.335 2.21731 35.0274 1.45042 34.4806 0.884787C33.9339 0.319153 33.1925 0.000958189 32.4193 0ZM21.3499 30.1724H3.2526C2.78848 30.1724 2.34336 29.9817 2.01517 29.6422C1.68698 29.3026 1.5026 28.8422 1.5026 28.362V27.7586H21.3499V30.1724ZM26.0166 33.1896L24.6166 32.1034C24.5156 32.0251 24.3928 31.9827 24.2666 31.9827C24.1404 31.9827 24.0176 32.0251 23.9166 32.1034L22.5166 33.1896V26.4497C22.6293 26.459 22.7426 26.4568 22.8549 26.4431C23.0211 26.6647 23.234 26.8441 23.4775 26.9676C23.7209 27.091 23.9885 27.1551 24.2596 27.1551C24.5307 27.1551 24.7983 27.091 25.0417 26.9676C25.2852 26.8441 25.4981 26.6647 25.6643 26.4431C25.7804 26.4575 25.8977 26.4597 26.0143 26.4497L26.0166 33.1896ZM26.7668 23.5224C26.6898 23.5507 26.6195 23.5954 26.5603 23.6536C26.5011 23.7117 26.4544 23.7821 26.4232 23.8602C26.392 23.9382 26.3769 24.0222 26.379 24.1066C26.3811 24.191 26.4003 24.2741 26.4354 24.3503C26.4894 24.4671 26.507 24.5982 26.4861 24.7257C26.4651 24.8533 26.4065 24.971 26.3184 25.0627C26.2302 25.1544 26.1168 25.2157 25.9936 25.2381C25.8704 25.2606 25.7436 25.243 25.6304 25.1879C25.5567 25.1515 25.4764 25.1315 25.3947 25.1293C25.313 25.1271 25.2318 25.1426 25.1563 25.1749C25.0807 25.2072 25.0126 25.2556 24.9564 25.3169C24.9001 25.3782 24.8569 25.451 24.8295 25.5307C24.7879 25.6527 24.7108 25.7583 24.6087 25.833C24.5066 25.9078 24.3847 25.9479 24.2596 25.9479C24.1346 25.9479 24.0126 25.9078 23.9105 25.833C23.8084 25.7583 23.7313 25.6527 23.6897 25.5307C23.6623 25.451 23.6191 25.3782 23.5629 25.3169C23.5066 25.2556 23.4385 25.2072 23.363 25.1749C23.2874 25.1426 23.2062 25.1271 23.1245 25.1293C23.0428 25.1315 22.9625 25.1515 22.8888 25.1879C22.7756 25.243 22.6488 25.2606 22.5256 25.2381C22.4024 25.2157 22.289 25.1544 22.2008 25.0627C22.1127 24.971 22.0541 24.8533 22.0331 24.7257C22.0122 24.5982 22.0299 24.4671 22.0838 24.3503C22.1189 24.2741 22.1381 24.1911 22.1403 24.1067C22.1424 24.0223 22.1274 23.9384 22.0962 23.8603C22.0651 23.7823 22.0184 23.7119 21.9593 23.6537C21.9002 23.5955 21.8299 23.5508 21.753 23.5224C21.6349 23.479 21.5328 23.3989 21.4605 23.293C21.3882 23.1871 21.3494 23.0606 21.3494 22.931C21.3494 22.8014 21.3882 22.675 21.4605 22.5691C21.5328 22.4632 21.6349 22.383 21.753 22.3396C21.8298 22.3113 21.9 22.2666 21.9591 22.2084C22.0182 22.1502 22.0648 22.0799 22.096 22.0019C22.1271 21.924 22.1421 21.8401 22.14 21.7558C22.1379 21.6715 22.1188 21.5885 22.0838 21.5123C22.0297 21.3956 22.0118 21.2643 22.0327 21.1367C22.0535 21.009 22.1121 20.8912 22.2003 20.7993C22.2885 20.7075 22.4021 20.6461 22.5253 20.6237C22.6486 20.6013 22.7756 20.6189 22.8888 20.6741C22.9625 20.7105 23.0428 20.7305 23.1245 20.7327C23.2062 20.735 23.2874 20.7194 23.363 20.6871C23.4385 20.6548 23.5066 20.6064 23.5629 20.5451C23.6191 20.4839 23.6623 20.411 23.6897 20.3314C23.7313 20.2094 23.8084 20.1037 23.9105 20.029C24.0126 19.9543 24.1346 19.9142 24.2596 19.9142C24.3847 19.9142 24.5066 19.9543 24.6087 20.029C24.7108 20.1037 24.7879 20.2094 24.8295 20.3314C24.8569 20.411 24.9001 20.4839 24.9564 20.5451C25.0126 20.6064 25.0807 20.6548 25.1563 20.6871C25.2318 20.7194 25.313 20.735 25.3947 20.7327C25.4764 20.7305 25.5567 20.7105 25.6304 20.6741C25.7436 20.619 25.8704 20.6015 25.9936 20.6239C26.1168 20.6463 26.2302 20.7076 26.3184 20.7993C26.4065 20.8911 26.4651 21.0088 26.4861 21.1363C26.507 21.2639 26.4894 21.395 26.4354 21.5117C26.4003 21.588 26.3811 21.671 26.379 21.7554C26.3769 21.8399 26.392 21.9238 26.4232 22.0019C26.4544 22.0799 26.5011 22.1503 26.5603 22.2085C26.6195 22.2667 26.6898 22.3113 26.7668 22.3396C26.8846 22.3833 26.9865 22.4636 27.0585 22.5694C27.1305 22.6753 27.1692 22.8016 27.1692 22.931C27.1692 23.0605 27.1305 23.1868 27.0585 23.2926C26.9865 23.3985 26.8846 23.4787 26.7668 23.5224ZM30.041 1.28233C30.0078 1.3306 29.9786 1.3819 29.9483 1.43259C29.8861 1.53561 29.83 1.64242 29.7803 1.75241C29.754 1.81276 29.7295 1.86827 29.7068 1.92741C29.6634 2.04567 29.6272 2.16659 29.5983 2.28948C29.5849 2.3456 29.5679 2.39991 29.5574 2.45724C29.5223 2.64172 29.5039 2.82921 29.5026 3.01724V28.362C29.5026 28.8422 29.3182 29.3026 28.99 29.6422C28.6618 29.9817 28.2167 30.1724 27.7526 30.1724C27.5581 30.1687 27.3657 30.1311 27.1833 30.0614V25.8638C27.3624 25.6687 27.4972 25.4348 27.5779 25.179C27.6586 24.9233 27.6832 24.6521 27.6499 24.3853C27.8639 24.213 28.0371 23.9924 28.1562 23.7404C28.2753 23.4884 28.3372 23.2116 28.3372 22.931C28.3372 22.6505 28.2753 22.3737 28.1562 22.1216C28.0371 21.8696 27.8639 21.649 27.6499 21.4767C27.684 21.1986 27.6561 20.9162 27.5686 20.6509C27.481 20.3856 27.3361 20.1445 27.1448 19.946C26.9534 19.7475 26.7208 19.5969 26.4647 19.5055C26.2085 19.4142 25.9355 19.3846 25.6666 19.419C25.5005 19.1973 25.2875 19.0179 25.0441 18.8945C24.8006 18.7711 24.5331 18.7069 24.2619 18.7069C23.9908 18.7069 23.7233 18.7711 23.4798 18.8945C23.2363 19.0179 23.0234 19.1973 22.8573 19.419C22.5884 19.3847 22.3155 19.4144 22.0594 19.5058C21.8032 19.5972 21.5707 19.7478 21.3794 19.9463C21.1881 20.1448 21.0431 20.3858 20.9555 20.651C20.8679 20.9162 20.84 21.1986 20.8739 21.4767C20.6599 21.649 20.4868 21.8696 20.3677 22.1216C20.2486 22.3737 20.1867 22.6505 20.1867 22.931C20.1867 23.2116 20.2486 23.4884 20.3677 23.7404C20.4868 23.9924 20.6599 24.213 20.8739 24.3853C20.8399 24.6559 20.8653 24.931 20.9484 25.19C21.0314 25.449 21.1699 25.6853 21.3534 25.8813V26.5517H6.16927V3.01724C6.16927 2.53711 6.35364 2.07664 6.68183 1.73713C7.01002 1.39763 7.45514 1.2069 7.91927 1.2069H30.0859C30.0696 1.23043 30.0574 1.25759 30.041 1.28233ZM34.1693 3.62069H30.6693V3.01724C30.6693 2.53711 30.8536 2.07664 31.1818 1.73713C31.51 1.39763 31.9551 1.2069 32.4193 1.2069C32.8834 1.2069 33.3285 1.39763 33.6567 1.73713C33.9849 2.07664 34.1693 2.53711 34.1693 3.01724V3.62069Z" fill="#4F75D2"/>
<path d="M21.9193 4.82764H19.5859V6.03453H21.9193V4.82764Z" fill="#4F75D2"/>
<path d="M18.4206 4.82764H13.7539V6.03453H18.4206V4.82764Z" fill="#4F75D2"/>
<path d="M23.6706 7.84485H12.0039V9.05174H23.6706V7.84485Z" fill="#4F75D2"/>
<path d="M12.0026 11.4655H9.08594V12.6724H12.0026V11.4655Z" fill="#4F75D2"/>
<path d="M15.5026 14.4828H9.08594V15.6897H15.5026V14.4828Z" fill="#4F75D2"/>
<path d="M26.5846 11.4655H13.168V12.6724H26.5846V11.4655Z" fill="#4F75D2"/>
<path d="M26.5846 14.4828H16.668V15.6897H26.5846V14.4828Z" fill="#4F75D2"/>
<path d="M20.7526 17.5H9.08594V18.7069H20.7526V17.5Z" fill="#4F75D2"/>
<path d="M19.0026 20.5172H9.08594V21.7241H19.0026V20.5172Z" fill="#4F75D2"/>
</g>
<defs>
<clipPath id="clip0_56_21">
<rect width="35" height="35" fill="white" transform="translate(0.335938)"/>
</clipPath>
</defs>
</svg>
