<svg width="39" height="38" viewBox="0 0 39 38" fill="none" xmlns="http://www.w3.org/2000/svg">
<path fill-rule="evenodd" clip-rule="evenodd" d="M32.1154 0.736206C28.7613 0.736206 26.0279 3.43149 26.0279 6.73884C26.0279 8.23937 26.5985 9.68612 27.6262 10.7928C27.6858 10.8572 27.7576 10.9094 27.8377 10.9464C27.9177 10.9834 28.0044 11.0045 28.0927 11.0084C28.181 11.0123 28.2692 10.999 28.3523 10.9692C28.4354 10.9394 28.5117 10.8938 28.5769 10.8349C28.6421 10.776 28.6948 10.705 28.7321 10.6259C28.7694 10.5469 28.7905 10.4614 28.7943 10.3743C28.798 10.2872 28.7842 10.2003 28.7538 10.1184C28.7234 10.0366 28.6769 9.96143 28.617 9.89734C27.8159 9.03471 27.3716 7.9085 27.3716 6.73884C27.3716 4.14759 29.4875 2.06123 32.1154 2.06123C34.7434 2.06123 36.8592 4.14759 36.8592 6.73884C36.8592 7.8721 36.4416 8.96686 35.6848 9.8197C35.6257 9.88506 35.5804 9.96132 35.5514 10.0441C35.5224 10.1268 35.5103 10.2144 35.5158 10.3017C35.5214 10.3891 35.5444 10.4745 35.5836 10.553C35.6228 10.6316 35.6774 10.7018 35.7442 10.7594C35.8111 10.817 35.8888 10.8609 35.973 10.8887C36.0572 10.9165 36.1461 10.9276 36.2347 10.9214C36.3232 10.9151 36.4096 10.8915 36.4889 10.8521C36.5682 10.8127 36.6387 10.7583 36.6965 10.6918C37.6675 9.5977 38.203 8.19275 38.203 6.73884C38.203 3.43149 35.4696 0.736206 32.1154 0.736206ZM20.7342 4.04876C20.5561 4.04878 20.3852 4.11854 20.2592 4.24277L0.774837 23.4553C0.648882 23.5796 0.578125 23.7481 0.578125 23.9238C0.578125 24.0994 0.648882 24.2679 0.774837 24.3922L7.49359 31.0171L14.2123 37.6421C14.3383 37.7663 14.5092 37.8361 14.6874 37.8361C14.8655 37.8361 15.0364 37.7663 15.1624 37.6421L34.6468 18.4297C34.7728 18.3054 34.8436 18.1369 34.8436 17.9612V4.71127C34.8436 4.53557 34.7728 4.36701 34.6468 4.24277C34.5208 4.11853 34.3499 4.04877 34.1718 4.04876H30.1405C30.0514 4.04744 29.963 4.06358 29.8803 4.09629C29.7976 4.12899 29.7223 4.17761 29.6589 4.23926C29.5954 4.30091 29.545 4.37432 29.5106 4.45536C29.4762 4.53639 29.4585 4.62342 29.4585 4.71127C29.4585 4.79911 29.4762 4.88607 29.5106 4.9671C29.545 5.04813 29.5954 5.12155 29.6589 5.1832C29.7223 5.24485 29.7976 5.29347 29.8803 5.32617C29.963 5.35887 30.0514 5.37502 30.1405 5.3737H33.4999V17.6869L14.6874 36.2369L8.44366 30.0803L2.19995 23.9238L21.0124 5.3737H24.0936C24.1827 5.37502 24.2712 5.35887 24.3538 5.32617C24.4365 5.29347 24.5118 5.24485 24.5753 5.1832C24.6387 5.12155 24.6891 5.04813 24.7235 4.9671C24.7579 4.88607 24.7756 4.79911 24.7756 4.71127C24.7756 4.62342 24.7579 4.53639 24.7235 4.45536C24.6891 4.37432 24.6387 4.30091 24.5753 4.23926C24.5118 4.17761 24.4365 4.12899 24.3538 4.09629C24.2712 4.06358 24.1827 4.04744 24.0936 4.04876H20.7342ZM29.4253 8.52448C29.2917 8.53161 29.1632 8.57794 29.0564 8.65752C28.9497 8.7371 28.8694 8.84628 28.826 8.97112C28.7826 9.09596 28.7779 9.23071 28.8127 9.35816C28.8475 9.48561 28.9201 9.59993 29.0211 9.68643C29.306 9.93801 29.4686 10.2966 29.4686 10.6737C29.4686 11.4133 28.875 11.9987 28.1249 11.9987C27.3748 11.9987 26.7811 11.4133 26.7811 10.6737C26.7824 10.5859 26.7659 10.4988 26.7327 10.4173C26.6995 10.3359 26.6502 10.2617 26.5877 10.1992C26.5252 10.1367 26.4507 10.087 26.3686 10.0531C26.2864 10.0193 26.1983 10.0018 26.1092 10.0018C26.0202 10.0018 25.9321 10.0193 25.8499 10.0531C25.7678 10.087 25.6933 10.1367 25.6308 10.1992C25.5683 10.2617 25.519 10.3359 25.4858 10.4173C25.4526 10.4988 25.4361 10.5859 25.4374 10.6737C25.4374 12.1294 26.6486 13.3237 28.1249 13.3237C29.6012 13.3237 30.8124 12.1294 30.8124 10.6737C30.8124 9.9206 30.4863 9.2016 29.9174 8.69917C29.801 8.59333 29.6504 8.53145 29.4922 8.52441C29.4699 8.52331 29.4476 8.52331 29.4253 8.52441L29.4253 8.52448ZM18.817 15.1728C18.6738 15.1804 18.5368 15.2329 18.4261 15.3228C18.3154 15.4127 18.2367 15.5351 18.2016 15.6723L15.2503 26.5323C15.2254 26.617 15.2179 26.7057 15.2283 26.7933C15.2386 26.8808 15.2665 26.9654 15.3104 27.0422C15.3543 27.119 15.4133 27.1863 15.484 27.2404C15.5546 27.2944 15.6354 27.3339 15.7218 27.3567C15.8081 27.3795 15.8982 27.3852 15.9868 27.3732C16.0754 27.3613 16.1606 27.332 16.2376 27.2872C16.3145 27.2424 16.3816 27.1828 16.435 27.1121C16.4883 27.0413 16.5268 26.9608 16.5482 26.8752L19.4994 16.0151C19.5286 15.9137 19.5328 15.8069 19.5117 15.7035C19.4905 15.6002 19.4447 15.5032 19.378 15.4209C19.3112 15.3385 19.2255 15.273 19.128 15.2299C19.0304 15.1867 18.9238 15.1672 18.817 15.1728ZM22.2578 18.1229C21.8698 18.0951 21.4711 18.176 21.1122 18.3804C20.155 18.9254 19.8221 20.1513 20.3747 21.0951C20.9273 22.0389 22.1706 22.3686 23.1278 21.8237C24.085 21.2788 24.4179 20.0515 23.8653 19.1077C23.5199 18.5178 22.9044 18.1691 22.2578 18.1229ZM22.0386 19.4415C22.2985 19.4077 22.5592 19.5274 22.7013 19.7702C22.8908 20.0939 22.7842 20.4891 22.4559 20.6759C22.1277 20.8627 21.7282 20.7563 21.5387 20.4328C21.3491 20.1091 21.4558 19.7152 21.7841 19.5283C21.8661 19.4815 21.952 19.453 22.0386 19.4417V19.4415ZM12.7689 20.465C12.3809 20.4372 11.9809 20.5194 11.6219 20.7238C10.6648 21.2687 10.3318 22.4947 10.8845 23.4385C11.4371 24.3823 12.6804 24.7106 13.6376 24.1657C14.5947 23.6208 14.9277 22.3948 14.3751 21.451C14.0297 20.8611 13.4154 20.5112 12.7689 20.465ZM12.5497 21.7848C12.8096 21.751 13.0703 21.8707 13.2124 22.1135C13.4019 22.4372 13.2939 22.8311 12.9657 23.0179C12.6374 23.2047 12.2379 23.0996 12.0484 22.7761C11.8589 22.4524 11.9656 22.0571 12.2938 21.8703C12.3759 21.8237 12.4631 21.7962 12.5497 21.7849V21.7848Z" fill="#4F75D2"/>
</svg>
