<svg width="13" height="12" viewBox="0 0 13 12" fill="none" xmlns="http://www.w3.org/2000/svg">
<path d="M6.65172 0.0170898C3.43172 0.0170898 0.824219 2.63042 0.824219 5.85042C0.824219 9.07042 3.43172 11.6838 6.65172 11.6838C9.87755 11.6838 12.4909 9.07042 12.4909 5.85042C12.4909 2.63042 9.87755 0.0170898 6.65172 0.0170898ZM6.65755 10.5171C4.07922 10.5171 1.99089 8.42876 1.99089 5.85042C1.99089 3.27209 4.07922 1.18376 6.65755 1.18376C9.23589 1.18376 11.3242 3.27209 11.3242 5.85042C11.3242 8.42876 9.23589 10.5171 6.65755 10.5171ZM6.52922 2.93376H6.49422C6.26089 2.93376 6.07422 3.12042 6.07422 3.35376V6.10709C6.07422 6.31126 6.17922 6.50376 6.36005 6.60876L8.78089 8.06126C8.97922 8.17792 9.23589 8.11959 9.35255 7.92126C9.47505 7.72292 9.41089 7.46042 9.20672 7.34376L6.94922 6.00209V3.35376C6.94922 3.12042 6.76255 2.93376 6.52922 2.93376Z" fill="#797979"/>
</svg>
