<svg width="58" height="59" viewBox="0 0 58 59" fill="none" xmlns="http://www.w3.org/2000/svg">
<path d="M57.4835 45.6487H49.2321V42.8202H47.3984V45.6487H33.6461V36.2202H35.4798V34.3345H33.6461V31.7388C40.0098 29.7211 44.648 23.6179 44.648 16.4202C44.648 7.58183 37.6563 0.391602 29.062 0.391602C20.4678 0.391602 13.4761 7.58183 13.4761 16.4202C13.4761 23.6179 18.1143 29.7211 24.4779 31.7388V34.3345H22.6443V36.2202H24.4779V45.6487H10.7256V42.8202H8.892V45.6487H0.640625V47.5345H8.892V54.1345H0.640625V56.0202H8.892V58.8487H10.7256V56.0202H47.3984V58.8487H49.2321V56.0202H57.4835V54.1345H49.2321V47.5345H57.4835V45.6487ZM15.3097 16.4202C15.3097 8.6218 21.479 2.27732 29.062 2.27732C36.6451 2.27732 42.8143 8.6218 42.8143 16.4202C42.8143 24.2185 36.6451 30.563 29.062 30.563C21.479 30.563 15.3097 24.2185 15.3097 16.4202ZM26.3116 32.1838C27.2064 32.3479 28.1223 32.4487 29.062 32.4487C30.0018 32.4487 30.9177 32.3479 31.8125 32.1838V34.3345H26.3116V32.1838ZM26.3116 36.2202H31.8125V45.6487H26.3116V36.2202ZM47.3984 54.1345H10.7256V47.5345H47.3984V54.1345Z" fill="#4F75D2"/>
<path d="M29.0627 19.2487C30.5792 19.2487 31.8132 17.9796 31.8132 16.4201C31.8132 14.8606 30.5792 13.5916 29.0627 13.5916C27.5463 13.5916 26.3123 14.8606 26.3123 16.4201C26.3123 16.719 26.37 17.0009 26.4535 17.2715L21.2734 20.316L22.1829 21.9528L27.5674 18.7886C27.9992 19.0771 28.5108 19.2487 29.0627 19.2487ZM29.0627 15.4773C29.5679 15.4773 29.9796 15.9006 29.9796 16.4201C29.9796 16.9396 29.5679 17.363 29.0627 17.363C28.5576 17.363 28.1459 16.9396 28.1459 16.4201C28.1459 15.9006 28.5576 15.4773 29.0627 15.4773Z" fill="#4F75D2"/>
<path d="M14.3922 48.4773H12.5586V50.363H14.3922V48.4773Z" fill="#4F75D2"/>
<path d="M14.3922 51.3059H12.5586V53.1916H14.3922V51.3059Z" fill="#4F75D2"/>
<path d="M7.0602 48.4773H5.22656V50.363H7.0602V48.4773Z" fill="#4F75D2"/>
<path d="M7.0602 51.3059H5.22656V53.1916H7.0602V51.3059Z" fill="#4F75D2"/>
<path d="M52.9001 48.4773H51.0664V50.363H52.9001V48.4773Z" fill="#4F75D2"/>
<path d="M52.9001 51.3059H51.0664V53.1916H52.9001V51.3059Z" fill="#4F75D2"/>
<path d="M45.5641 48.4773H43.7305V50.363H45.5641V48.4773Z" fill="#4F75D2"/>
<path d="M45.5641 51.3059H43.7305V53.1916H45.5641V51.3059Z" fill="#4F75D2"/>
<path d="M29.9782 4.16296H28.1445V6.04868H29.9782V4.16296Z" fill="#4F75D2"/>
<path d="M23.8965 5.33449L22.3086 6.27734L23.2254 7.91037L24.8133 6.96751L23.8965 5.33449Z" fill="#4F75D2"/>
<path d="M19.1981 9.47476L18.2812 11.1078L19.8692 12.0506L20.786 10.4176L19.1981 9.47476Z" fill="#4F75D2"/>
<path d="M18.9782 15.4773H17.1445V17.363H18.9782V15.4773Z" fill="#4F75D2"/>
<path d="M19.8694 20.7902L18.2812 21.7329L19.1979 23.3661L20.786 22.4235L19.8694 20.7902Z" fill="#4F75D2"/>
<path d="M38.2528 20.7896L37.3359 22.4226L38.9239 23.3655L39.8407 21.7324L38.2528 20.7896Z" fill="#4F75D2"/>
<path d="M40.9821 15.4773H39.1484V17.363H40.9821V15.4773Z" fill="#4F75D2"/>
<path d="M38.928 9.4764L37.3398 10.4191L38.2565 12.0523L39.8446 11.1096L38.928 9.4764Z" fill="#4F75D2"/>
<path d="M34.2252 5.33285L33.3086 6.96606L34.8967 7.90873L35.8134 6.27552L34.2252 5.33285Z" fill="#4F75D2"/>
<path d="M34.5643 24.9059H23.5625V26.7916H34.5643V24.9059Z" fill="#4F75D2"/>
</svg>
