<svg width="38" height="38" viewBox="0 0 38 38" fill="none" xmlns="http://www.w3.org/2000/svg">
<path d="M32.3347 0.29834H6.3325C3.36225 0.29834 0.945312 2.71528 0.945312 5.68553V31.6877C0.945312 34.6579 3.36225 37.0749 6.3325 37.0749H32.3347C35.3049 37.0749 37.7219 34.6579 37.7219 31.6877V5.68553C37.7219 2.71528 35.3049 0.29834 32.3347 0.29834ZM19.4054 28.3117C14.0583 28.3117 9.70847 23.9618 9.70847 18.6148C9.70847 13.2677 14.0583 8.91784 19.4054 8.91784C24.7525 8.91784 29.1024 13.2677 29.1024 18.6148C29.1024 23.9618 24.7525 28.3117 19.4054 28.3117ZM30.1798 11.0727C28.3975 11.0727 26.9475 9.62267 26.9475 7.8404C26.9475 6.05814 28.3975 4.60809 30.1798 4.60809C31.9621 4.60809 33.4121 6.05814 33.4121 7.8404C33.4121 9.62267 31.9621 11.0727 30.1798 11.0727Z" fill="white"/>
<path d="M30.1751 6.76318C29.5805 6.76318 29.0977 7.24607 29.0977 7.84062C29.0977 8.43518 29.5805 8.91806 30.1751 8.91806C30.7696 8.91806 31.2525 8.43518 31.2525 7.84062C31.2525 7.24607 30.7696 6.76318 30.1751 6.76318Z" fill="white"/>
<path d="M19.4114 12.0391C15.7861 12.0391 12.8359 14.9892 12.8359 18.6146C12.8359 22.2399 15.7861 25.1901 19.4114 25.1901C23.0368 25.1901 25.987 22.2399 25.987 18.6146C25.987 14.9892 23.0368 12.0391 19.4114 12.0391Z" fill="white"/>
</svg>
