<svg width="38" height="38" viewBox="0 0 38 38" fill="none" xmlns="http://www.w3.org/2000/svg">
<path d="M19.1317 14.9727C21.2026 14.966 22.852 13.3032 22.8445 11.2276C22.8362 9.15196 21.184 7.49865 19.1124 7.49707C17.0233 7.4951 15.355 9.17801 15.3712 11.2726C15.3866 13.3403 17.0545 14.9814 19.1317 14.9727Z" fill="white"/>
<path d="M35.6889 0.136719H2.53589C1.44619 0.136719 0.5625 1.02001 0.5625 2.11011V35.2631C0.5625 36.3532 1.44619 37.2365 2.53589 37.2365H35.6889C36.779 37.2365 37.6623 36.3532 37.6623 35.2631V2.11011C37.6623 1.02001 36.779 0.136719 35.6889 0.136719ZM19.144 3.59647C23.3666 3.60713 26.7569 7.06214 26.736 11.333C26.7135 15.5047 23.268 18.8863 19.052 18.8721C14.8779 18.8579 11.4552 15.3977 11.4789 11.2169C11.5038 6.99031 14.9288 3.58384 19.144 3.59647ZM27.6978 21.8724C26.764 22.8319 25.64 23.525 24.3912 24.01C23.2107 24.4663 21.9174 24.6976 20.637 24.8507C20.8304 25.0615 20.9216 25.1637 21.0416 25.2856C22.7797 27.0321 24.525 28.7714 26.2572 30.523C26.8469 31.1194 26.9716 31.8594 26.646 32.5536C26.2904 33.3134 25.4951 33.8119 24.7145 33.7582C24.2203 33.7235 23.8351 33.4776 23.4933 33.1338C22.1814 31.8136 20.8446 30.5183 19.5603 29.1748C19.1866 28.7833 19.0066 28.8563 18.6759 29.1969C17.3565 30.5554 16.0165 31.8929 14.6679 33.2226C14.0621 33.8202 13.3418 33.9271 12.6381 33.5865C11.8913 33.2246 11.4169 32.4625 11.4537 31.6956C11.4789 31.1778 11.7339 30.7823 12.0895 30.4271C13.8087 28.7099 15.524 26.9883 17.24 25.2679C17.3541 25.1542 17.4599 25.0322 17.6252 24.8554C15.2852 24.6111 13.1752 24.0357 11.3696 22.6227C11.1458 22.4471 10.9141 22.2774 10.7089 22.0808C9.91875 21.3215 9.83942 20.4528 10.465 19.5565C10.9994 18.79 11.8985 18.584 12.8319 19.0241C13.013 19.1089 13.1851 19.2159 13.3501 19.3299C16.7159 21.6427 21.3403 21.7071 24.7192 19.4349C25.0535 19.1796 25.4115 18.968 25.8267 18.863C26.6338 18.6558 27.3845 18.9514 27.8178 19.6571C28.3139 20.4611 28.3072 21.2473 27.6978 21.8724Z" fill="white"/>
</svg>
