<svg width="37" height="37" viewBox="0 0 37 37" fill="none" xmlns="http://www.w3.org/2000/svg">
<path d="M35.0319 0H1.96809C0.880915 0 0 0.881309 0 1.96809V35.0319C0 36.1187 0.880915 37 1.96809 37H35.0319C36.1191 37 37 36.1187 37 35.0319V1.96809C37 0.881309 36.1191 0 35.0319 0ZM29.4697 20.8393C30.4782 21.8233 31.5445 22.7499 32.4502 23.8374C32.8509 24.3177 33.2288 24.8136 33.5165 25.3722C33.9262 26.1688 33.5562 27.0438 32.8422 27.0907L28.4117 27.0895C27.2678 27.1836 26.357 26.7231 25.5887 25.9409C24.9766 25.3171 24.4074 24.6511 23.8174 24.0067C23.5769 23.7418 23.3218 23.4926 23.0203 23.2958C22.4165 22.9038 21.8918 23.0234 21.545 23.6536C21.1923 24.2952 21.1109 25.0069 21.0786 25.7221C21.0294 26.7671 20.7145 27.0399 19.6663 27.0883C17.4266 27.1938 15.3007 26.8537 13.3259 25.7252C11.5826 24.7294 10.2344 23.3226 9.05988 21.7316C6.77061 18.6287 5.01744 15.2227 3.44297 11.7192C3.08832 10.93 3.34771 10.5076 4.21721 10.4915C5.66415 10.4627 7.11069 10.4667 8.55566 10.4899C9.14451 10.4989 9.5338 10.8359 9.75934 11.3909C10.5407 13.3137 11.4995 15.1432 12.7001 16.8397C13.0201 17.2912 13.3468 17.7419 13.8112 18.0611C14.3245 18.4138 14.7158 18.2977 14.9578 17.725C15.1125 17.3597 15.1794 16.9716 15.2125 16.5811C15.3274 15.2444 15.3412 13.9077 15.1428 12.5761C15.0189 11.7432 14.5497 11.2051 13.7191 11.0476C13.2964 10.9674 13.3582 10.8107 13.5636 10.5694C13.9203 10.1514 14.2564 9.89317 14.924 9.89317L19.9312 9.89238C20.7208 10.0467 20.8963 10.4009 21.0038 11.1956L21.0085 16.7586C21.0003 17.0664 21.1624 17.9781 21.7151 18.1796C22.1571 18.3256 22.4503 17.971 22.7149 17.6899C23.9146 16.4166 24.7695 14.9126 25.5359 13.3566C25.8732 12.6705 26.1657 11.9597 26.4491 11.2484C26.6589 10.7221 26.9872 10.4631 27.5807 10.4726L32.401 10.4777C32.5427 10.4777 32.6879 10.4793 32.8284 10.5025C33.6401 10.6422 33.8625 10.9918 33.6117 11.7845C33.2166 13.0295 32.447 14.0671 31.6944 15.107C30.8903 16.219 30.0318 17.2944 29.2335 18.4118C28.5022 19.4368 28.5612 19.9517 29.4697 20.8393Z" fill="white"/>
</svg>
