<svg width="37" height="37" viewBox="0 0 37 37" fill="none" xmlns="http://www.w3.org/2000/svg">
<g clip-path="url(#clip0_155_15646)">
<path d="M34.3664 0H2.19614C1.13874 0 0.28125 0.881309 0.28125 1.96809V35.0319C0.28125 36.1187 1.13874 37 2.19614 37H34.3664C35.4241 37 36.2812 36.1187 36.2812 35.0319V1.96809C36.2812 0.881309 35.4241 0 34.3664 0ZM25.914 8.40923L23.1466 8.41042C20.9774 8.41042 20.5573 9.47003 20.5573 11.0252V14.454H25.7317L25.7302 19.8245H20.5573V33.6058H15.1607V19.8245H10.6485V14.454H15.1607V10.4934C15.1607 5.89717 17.8925 3.39416 21.8813 3.39416L25.914 3.40085V8.40923Z" fill="white"/>
</g>
<defs>
<clipPath id="clip0_155_15646">
<rect width="36" height="37" fill="white" transform="translate(0.28125)"/>
</clipPath>
</defs>
</svg>
