<svg width="38" height="37" viewBox="0 0 38 37" fill="none" xmlns="http://www.w3.org/2000/svg">
<path d="M16.7111 27.479C16.3784 27.9363 16.0643 28.1611 15.7639 28.1611C15.5638 28.1611 15.4498 28.0462 15.4139 27.8202C15.3997 27.7726 15.3997 27.5951 15.3997 27.2538V21.3291H13.9023V27.6923C13.9023 28.2599 13.9529 28.6456 14.0349 28.8893C14.1849 29.2967 14.5172 29.4876 14.9999 29.4876C15.5501 29.4876 16.1156 29.1636 16.7111 28.4988V29.3766H18.2097V21.3291H16.7111V27.479Z" fill="white"/>
<path d="M22.5492 21.2312C21.9994 21.2312 21.4856 21.5241 21.0009 22.1043V18.5767H19.5039V29.3771H21.0009V28.5966C21.5013 29.1992 22.0168 29.4873 22.5492 29.4873C23.145 29.4873 23.5465 29.1815 23.7454 28.5828C23.8456 28.2419 23.8978 27.7054 23.8978 26.9611V23.7563C23.8978 22.9938 23.8464 22.4617 23.7454 22.1385C23.5452 21.5363 23.1442 21.2312 22.5492 21.2312ZM22.3988 27.076C22.3988 27.803 22.1801 28.162 21.7479 28.162C21.5013 28.162 21.2511 28.0471 21.0005 27.803V22.8982C21.2507 22.6581 21.5005 22.5435 21.7479 22.5435C22.1801 22.5435 22.3988 22.9155 22.3988 23.6421V27.076Z" fill="white"/>
<path d="M8.46484 20.0961H10.2258V29.3764H11.8917V20.0961H13.6858V18.5752H8.46484V20.0961Z" fill="white"/>
<path d="M17.9923 13.8935C18.4795 13.8935 18.7139 13.5172 18.7139 12.765V9.34412C18.7139 8.59152 18.4795 8.2168 17.9923 8.2168C17.5044 8.2168 17.2695 8.59191 17.2695 9.34412V12.765C17.2695 13.5176 17.5044 13.8935 17.9923 13.8935Z" fill="white"/>
<path d="M27.3199 21.231C26.5542 21.231 25.9599 21.5045 25.5258 22.056C25.2076 22.4626 25.0625 23.0924 25.0625 23.9524V26.7703C25.0625 27.6257 25.2258 28.2602 25.544 28.6636C25.9761 29.2131 26.5736 29.4879 27.3558 29.4879C28.1381 29.4879 28.7517 29.1997 29.1669 28.6152C29.3484 28.3578 29.4664 28.0649 29.5166 27.7418C29.5303 27.5957 29.5485 27.2722 29.5485 26.8018V26.5889H28.0212C28.0212 27.1738 28.001 27.4973 27.9873 27.5772C27.902 27.9665 27.6873 28.1618 27.3186 28.1618C26.8048 28.1618 26.553 27.7902 26.553 27.0451V25.6182H29.5485V23.9524C29.5485 23.0916 29.3985 22.4626 29.0852 22.056C28.6668 21.5045 28.071 21.231 27.3199 21.231ZM28.0524 24.4043H26.555V23.6592C26.555 22.9145 26.806 22.5429 27.3061 22.5429C27.8025 22.5429 28.0524 22.9148 28.0524 23.6592V24.4043Z" fill="white"/>
<path d="M35.9826 0H2.02518C0.909034 0 0.00390625 0.881309 0.00390625 1.96809V35.0319C0.00390625 36.1187 0.909034 37 2.02518 37H35.9826C37.0992 37 38.0039 36.1187 38.0039 35.0319V1.96809C38.0039 0.881309 37.0992 0 35.9826 0ZM21.4743 6.98828H22.983V12.976C22.983 13.3212 22.983 13.5007 23.002 13.5491C23.0351 13.777 23.1536 13.8935 23.3565 13.8935C23.6589 13.8935 23.9762 13.6652 24.3118 13.2039V6.98828H25.8257V15.1208H24.3118V14.234C23.7102 14.9063 23.1354 15.233 22.5836 15.233C22.0957 15.233 21.7601 15.0405 21.6093 14.6284C21.5257 14.382 21.4743 13.9935 21.4743 13.4192V6.98828ZM15.7581 9.64007C15.7581 8.77097 15.9097 8.13488 16.2315 7.72434C16.6507 7.16777 17.2393 6.88987 17.9941 6.88987C18.7512 6.88987 19.3411 7.16777 19.7595 7.72434C20.0768 8.13488 20.2284 8.77097 20.2284 9.64007V12.4875C20.2284 13.3519 20.0768 13.9935 19.7595 14.4001C19.3411 14.9551 18.7512 15.233 17.9941 15.233C17.2393 15.233 16.6507 14.9551 16.2315 14.4001C15.9097 13.9935 15.7581 13.3519 15.7581 12.4875V9.64007ZM11.7107 4.20737L12.9017 8.49307L14.0465 4.20737H15.7436L13.7247 10.7009V15.1208H12.0471V10.7009C11.8951 9.91836 11.5583 8.77097 11.0207 7.24846C10.6665 6.23568 10.2987 5.21976 9.94495 4.20777L11.7107 4.20737ZM30.9614 30.0873C30.6578 31.3705 29.5796 32.3167 28.2828 32.4581C25.2096 32.7926 22.1001 32.7942 19.0031 32.7926C15.9057 32.7942 12.7954 32.7926 9.72301 32.4581C8.42535 32.3167 7.34801 31.3701 7.04442 30.0873C6.61267 28.2597 6.61267 26.2657 6.61267 24.3838C6.61267 22.5023 6.61833 20.5067 7.05008 18.6795C7.35327 17.3967 8.43101 16.4496 9.72827 16.3087C12.8006 15.9746 15.9114 15.973 19.0079 15.9746C22.1041 15.973 25.2149 15.9746 28.2876 16.3087C29.5849 16.4496 30.6634 17.3967 30.9666 18.6795C31.398 20.5071 31.3955 22.5023 31.3955 24.3838C31.3951 26.2657 31.3927 28.2597 30.9614 30.0873Z" fill="white"/>
</svg>
