<svg width="31" height="32" viewBox="0 0 31 32" fill="none" xmlns="http://www.w3.org/2000/svg">
<g clip-path="url(#clip0_157_7413)">
<path d="M28.8535 0.710449H2.04496C1.16379 0.710449 0.449219 1.44884 0.449219 2.35939V30.0615C0.449219 30.9721 1.16379 31.7104 2.04496 31.7104H28.8535C29.735 31.7104 30.4492 30.9721 30.4492 30.0615V2.35939C30.4492 1.44884 29.735 0.710449 28.8535 0.710449ZM21.8099 7.75602L19.5037 7.75701C17.696 7.75701 17.3459 8.6448 17.3459 9.94779V12.8206H21.6579L21.6567 17.3202H17.3459V28.8667H12.8488V17.3202H9.08858V12.8206H12.8488V9.50225C12.8488 5.65132 15.1253 3.5542 18.4492 3.5542L21.8099 3.55981V7.75602Z" fill="#4267B2"/>
</g>
<defs>
<clipPath id="clip0_157_7413">
<rect width="30" height="31" fill="white" transform="translate(0.449219 0.710449)"/>
</clipPath>
</defs>
</svg>
