<svg width="32" height="32" viewBox="0 0 32 32" fill="none" xmlns="http://www.w3.org/2000/svg">
<g clip-path="url(#clip0_157_14645)">
<path d="M30.9185 6.25522C30.6363 3.6115 28.5484 1.5231 25.9044 1.24118C19.2741 0.533539 12.6243 0.533539 5.99422 1.24118C3.35027 1.52334 1.26211 3.6115 0.97995 6.25522C0.272308 12.8853 0.272308 19.5353 0.97995 26.1654C1.26211 28.8094 3.35027 30.8976 5.99399 31.1797C12.6241 31.8874 19.2741 31.8874 25.9044 31.1797C28.5484 30.8976 30.6363 28.8094 30.9185 26.1654C31.6261 19.5353 31.6261 12.8856 30.9185 6.25522Z" fill="url(#paint0_radial_157_14645)"/>
<path d="M29.2327 7.37632C28.9825 5.03036 27.1296 3.1773 24.7834 2.92683C18.9 2.29913 12.999 2.29913 7.11557 2.92683C4.76962 3.1773 2.91655 5.03036 2.66609 7.37632C2.03839 13.2598 2.03839 19.1607 2.66609 25.0439C2.91655 27.3901 4.76962 29.2432 7.11557 29.4934C12.999 30.1214 18.9 30.1214 24.7832 29.4934C27.1294 29.2432 28.9825 27.3901 29.2327 25.0439C29.8606 19.1607 29.8606 13.2598 29.2327 7.37632Z" fill="url(#paint1_linear_157_14645)"/>
<path d="M0.914062 25.5229C0.935349 25.7372 0.957344 25.9515 0.980286 26.1658C1.26244 28.8095 3.3506 30.8977 5.99456 31.1798C12.6247 31.8875 19.2747 31.8875 25.9048 31.1798C28.5487 30.8977 30.6367 28.8095 30.9188 26.1658C30.9418 25.9515 30.9638 25.7372 30.9853 25.5229H0.914062Z" fill="url(#paint2_linear_157_14645)"/>
<path d="M30.9189 26.1658C31.2992 22.6032 31.4747 19.035 31.4463 15.4672L24.3605 8.38131C23.4752 7.3707 22.1822 6.73992 20.6628 6.68529C17.5383 6.57271 14.4038 6.57839 11.2788 6.68576C8.6833 6.77516 6.86832 8.51967 6.40286 11.0837C6.32079 11.5364 6.2716 11.995 6.20703 12.451V19.9678C6.24274 20.2114 6.29525 20.4538 6.31157 20.6988C6.41563 22.2584 7.05658 23.5942 8.0828 24.4979L15.2936 31.7084C18.8322 31.7332 22.3712 31.5573 25.9049 31.18C28.5488 30.8979 30.6367 28.8097 30.9189 26.1658Z" fill="url(#paint3_linear_157_14645)"/>
<path d="M30.9187 26.1657C30.6368 28.8092 28.5482 30.8978 25.9047 31.1797C22.3715 31.5567 18.8318 31.7329 15.2936 31.7081L8.09375 24.5082C8.9284 25.2388 10.0163 25.6837 11.2788 25.7312C14.4032 25.8485 17.5384 25.8455 20.6627 25.7329C23.4885 25.6307 25.5334 23.5393 25.6216 20.7134C25.7157 17.713 25.7157 14.7048 25.6216 11.7045C25.5814 10.4008 25.1237 9.25374 24.365 8.38574L31.4464 15.4671C31.4743 19.0344 31.2988 22.6031 30.9187 26.1657Z" fill="url(#paint4_linear_157_14645)"/>
<path d="M19.6076 12.8536C18.6998 11.8652 17.3974 11.2451 15.9497 11.2451C13.2076 11.2451 10.9844 13.4683 10.9844 16.2104C10.9844 17.6581 11.6045 18.9606 12.5929 19.8683L24.0809 31.3564C24.689 31.3034 25.2971 31.2445 25.9047 31.1797C28.5486 30.8975 30.6368 28.8094 30.919 26.1654C30.9838 25.5578 31.0427 24.9498 31.0956 24.3417L19.6076 12.8536Z" fill="url(#paint5_linear_157_14645)"/>
<path d="M31.3895 19.5497L22.1438 10.3043C21.9281 10.0212 21.5882 9.8374 21.2048 9.8374C20.5525 9.8374 20.0234 10.3662 20.0234 11.0188C20.0234 11.4022 20.2072 11.742 20.4903 11.9577L31.2241 22.6918C31.297 21.6448 31.3521 20.5972 31.3895 19.5497Z" fill="url(#paint6_linear_157_14645)"/>
<path d="M6.20703 12.451C6.2716 11.995 6.32079 11.5364 6.40286 11.0837C6.86808 8.51967 8.6833 6.77516 11.2788 6.68576C14.4038 6.57839 17.5383 6.57271 20.6628 6.68529C23.4877 6.78699 25.5335 8.8787 25.6218 11.7045C25.7157 14.7051 25.7157 17.7131 25.6218 20.7137C25.5335 23.5396 23.4884 25.631 20.6631 25.733C17.5385 25.8458 14.4033 25.8486 11.279 25.7313C8.45365 25.6251 6.50054 23.5287 6.31157 20.6986C6.29525 20.4538 6.24274 20.2111 6.20703 19.9675C6.20703 17.4619 6.20703 14.9563 6.20703 12.451ZM15.9522 24.0582C17.3822 24.0582 18.8136 24.101 20.2416 24.0483C22.4807 23.9653 23.8579 22.629 23.9101 20.3921C23.9749 17.6048 23.9749 14.8137 23.9101 12.0262C23.8579 9.78974 22.4797 8.42223 20.2416 8.37469C17.4009 8.31462 14.5571 8.31509 11.7163 8.37469C9.49525 8.42128 8.11402 9.76112 8.05371 11.973C7.97708 14.7955 7.97708 17.623 8.05371 20.4455C8.11402 22.6571 9.49525 23.966 11.7166 24.0483C13.1266 24.1008 14.5403 24.0582 15.9522 24.0582Z" fill="url(#paint7_linear_157_14645)"/>
<path d="M6.20703 12.451C6.2716 11.995 6.32079 11.5364 6.40286 11.0837C6.86808 8.51967 8.6833 6.77516 11.2788 6.68576C14.4038 6.57839 17.5383 6.57271 20.6628 6.68529C23.4877 6.78699 25.5335 8.8787 25.6218 11.7045C25.7157 14.7051 25.7157 17.7131 25.6218 20.7137C25.5335 23.5396 23.4884 25.631 20.6631 25.733C17.5385 25.8458 14.4033 25.8486 11.279 25.7313C8.45365 25.6251 6.50054 23.5287 6.31157 20.6986C6.29525 20.4538 6.24274 20.2111 6.20703 19.9675C6.20703 17.4619 6.20703 14.9563 6.20703 12.451ZM15.9522 24.0582C17.3822 24.0582 18.8136 24.101 20.2416 24.0483C22.4807 23.9653 23.8579 22.629 23.9101 20.3921C23.9749 17.6048 23.9749 14.8137 23.9101 12.0262C23.8579 9.78974 22.4797 8.42223 20.2416 8.37469C17.4009 8.31462 14.5571 8.31509 11.7163 8.37469C9.49525 8.42128 8.11402 9.76112 8.05371 11.973C7.97708 14.7955 7.97708 17.623 8.05371 20.4455C8.11402 22.6571 9.49525 23.966 11.7166 24.0483C13.1266 24.1008 14.5403 24.0582 15.9522 24.0582Z" fill="white"/>
<path d="M15.9497 11.2456C13.2076 11.2456 10.9844 13.4686 10.9844 16.2107C10.9844 18.953 13.2076 21.176 15.9497 21.176C18.692 21.176 20.915 18.953 20.915 16.2107C20.915 13.4686 18.692 11.2456 15.9497 11.2456ZM15.9497 19.4665C14.1515 19.4665 12.6939 18.0089 12.6939 16.2107C12.6939 14.4125 14.1515 12.9549 15.9497 12.9549C17.7479 12.9549 19.2055 14.4125 19.2055 16.2107C19.2055 18.0089 17.7479 19.4665 15.9497 19.4665Z" fill="white"/>
<path d="M22.3859 11.0188C22.3859 11.6711 21.8571 12.1999 21.2048 12.1999C20.5525 12.1999 20.0234 11.6711 20.0234 11.0188C20.0234 10.3662 20.5525 9.8374 21.2048 9.8374C21.8571 9.8374 22.3859 10.3662 22.3859 11.0188Z" fill="white"/>
</g>
<defs>
<radialGradient id="paint0_radial_157_14645" cx="0" cy="0" r="1" gradientUnits="userSpaceOnUse" gradientTransform="translate(6.80404 27.802) scale(34.1875)">
<stop stop-color="#FAE100"/>
<stop offset="0.0544" stop-color="#FADC04"/>
<stop offset="0.1167" stop-color="#FBCE0E"/>
<stop offset="0.1829" stop-color="#FCB720"/>
<stop offset="0.2514" stop-color="#FE9838"/>
<stop offset="0.3054" stop-color="#FF7950"/>
<stop offset="0.4922" stop-color="#FF1C74"/>
<stop offset="1" stop-color="#6C1CD1"/>
</radialGradient>
<linearGradient id="paint1_linear_157_14645" x1="12.3393" y1="14.1795" x2="-40.1784" y2="-15.3617" gradientUnits="userSpaceOnUse">
<stop stop-color="#A1B5D8" stop-opacity="0"/>
<stop offset="0.3094" stop-color="#90A2BD" stop-opacity="0.309804"/>
<stop offset="0.7554" stop-color="#7C8B9C" stop-opacity="0.756863"/>
<stop offset="1" stop-color="#748290"/>
</linearGradient>
<linearGradient id="paint2_linear_157_14645" x1="15.9496" y1="28.0757" x2="15.9496" y2="32.9078" gradientUnits="userSpaceOnUse">
<stop stop-color="#FAE100" stop-opacity="0"/>
<stop offset="0.3068" stop-color="#FCA800" stop-opacity="0.305882"/>
<stop offset="0.6275" stop-color="#FE7300" stop-opacity="0.627451"/>
<stop offset="0.8685" stop-color="#FF5200" stop-opacity="0.866667"/>
<stop offset="1" stop-color="#FF4500"/>
</linearGradient>
<linearGradient id="paint3_linear_157_14645" x1="14.1861" y1="14.4033" x2="6.51406" y2="6.73133" gradientUnits="userSpaceOnUse">
<stop stop-color="#833AB4" stop-opacity="0"/>
<stop offset="1" stop-color="#833AB4"/>
</linearGradient>
<linearGradient id="paint4_linear_157_14645" x1="21.6953" y1="29.0638" x2="17.8661" y2="11.0118" gradientUnits="userSpaceOnUse">
<stop stop-color="#833AB4" stop-opacity="0"/>
<stop offset="1" stop-color="#833AB4"/>
</linearGradient>
<linearGradient id="paint5_linear_157_14645" x1="23.1527" y1="23.4134" x2="7.7723" y2="8.03302" gradientUnits="userSpaceOnUse">
<stop stop-color="#833AB4" stop-opacity="0"/>
<stop offset="1" stop-color="#833AB4"/>
</linearGradient>
<linearGradient id="paint6_linear_157_14645" x1="24.2933" y1="14.1072" x2="19.2073" y2="9.02124" gradientUnits="userSpaceOnUse">
<stop stop-color="#833AB4" stop-opacity="0"/>
<stop offset="1" stop-color="#833AB4"/>
</linearGradient>
<linearGradient id="paint7_linear_157_14645" x1="22.1047" y1="10.0985" x2="9.56453" y2="22.6388" gradientUnits="userSpaceOnUse">
<stop stop-color="#833AB4"/>
<stop offset="0.0922" stop-color="#9C3495"/>
<stop offset="0.2927" stop-color="#DC2546"/>
<stop offset="0.392" stop-color="#FD1D1D"/>
<stop offset="0.5589" stop-color="#FC6831"/>
<stop offset="0.6887" stop-color="#FC9B40"/>
<stop offset="0.7521" stop-color="#FCAF45"/>
<stop offset="0.7806" stop-color="#FDB750"/>
<stop offset="0.8656" stop-color="#FECB6A"/>
<stop offset="0.9415" stop-color="#FFD87A"/>
<stop offset="1" stop-color="#FFDC80"/>
</linearGradient>
<clipPath id="clip0_157_14645">
<rect width="31" height="31" fill="white" transform="translate(0.449219 0.710449)"/>
</clipPath>
</defs>
</svg>
