<svg width="31" height="32" viewBox="0 0 31 32" fill="none" xmlns="http://www.w3.org/2000/svg">
<g clip-path="url(#clip0_157_7449)">
<path d="M15.4628 13.1073C17.1374 13.1017 18.4711 11.7123 18.4651 9.97799C18.4584 8.24364 17.1224 6.86216 15.4472 6.86084C13.7579 6.85919 12.4089 8.26541 12.422 10.0156C12.4344 11.7433 13.7831 13.1146 15.4628 13.1073Z" fill="#F7931F"/>
<path d="M28.8535 0.710449H2.04496C1.16379 0.710449 0.449219 1.44851 0.449219 2.35939V30.0615C0.449219 30.9724 1.16379 31.7104 2.04496 31.7104H28.8535C29.735 31.7104 30.4492 30.9724 30.4492 30.0615V2.35939C30.4492 1.44851 29.735 0.710449 28.8535 0.710449ZM15.4748 3.60136C18.8893 3.61027 21.6308 6.49723 21.6139 10.0659C21.5957 13.5517 18.8095 16.3773 15.4004 16.3654C12.0251 16.3536 9.25741 13.4623 9.27656 9.9689C9.29667 6.4372 12.0662 3.59081 15.4748 3.60136ZM22.3917 18.8725C21.6366 19.6742 20.7276 20.2533 19.7178 20.6586C18.7633 21.0399 17.7174 21.2331 16.6821 21.3611C16.8385 21.5372 16.9122 21.6226 17.0092 21.7245C18.4148 23.1838 19.826 24.6372 21.2268 26.1008C21.7036 26.5991 21.8044 27.2174 21.5411 27.7975C21.2536 28.4324 20.6105 28.8489 19.9792 28.804C19.5796 28.775 19.2682 28.5696 18.9918 28.2823C17.9309 27.1792 16.85 26.0968 15.8115 24.9742C15.5092 24.6471 15.3637 24.7081 15.0962 24.9927C14.0293 26.1278 12.9458 27.2455 11.8553 28.3565C11.3654 28.8558 10.7829 28.9452 10.2139 28.6606C9.61007 28.3582 9.22645 27.7213 9.25613 27.0806C9.27656 26.6479 9.48273 26.3174 9.77028 26.0206C11.1605 24.5857 12.5475 23.1472 13.9352 21.7097C14.0274 21.6147 14.1129 21.5128 14.2467 21.365C12.3544 21.1609 10.6483 20.6801 9.18815 19.4994C9.0072 19.3527 8.81986 19.2109 8.6539 19.0466C8.01496 18.4121 7.95081 17.6862 8.45667 16.9373C8.88879 16.2969 9.61581 16.1247 10.3706 16.4924C10.5171 16.5633 10.6562 16.6527 10.7896 16.748C13.5113 18.6806 17.2508 18.7343 19.983 16.8357C20.2534 16.6224 20.5428 16.4456 20.8786 16.3579C21.5312 16.1847 22.1383 16.4317 22.4887 17.0214C22.8899 17.6932 22.8844 18.3501 22.3917 18.8725Z" fill="#F7931F"/>
</g>
<defs>
<clipPath id="clip0_157_7449">
<rect width="30" height="31" fill="white" transform="translate(0.449219 0.710449)"/>
</clipPath>
</defs>
</svg>
