<svg width="31" height="32" viewBox="0 0 31 32" fill="none" xmlns="http://www.w3.org/2000/svg">
<g clip-path="url(#clip0_157_7431)">
<path d="M28.8535 0.710449H2.04496C1.16347 0.710449 0.449219 1.44884 0.449219 2.35939V30.0615C0.449219 30.9721 1.16347 31.7104 2.04496 31.7104H28.8535C29.735 31.7104 30.4492 30.9721 30.4492 30.0615V2.35939C30.4492 1.44884 29.735 0.710449 28.8535 0.710449ZM24.3436 18.1704C25.1612 18.9948 26.0258 19.7712 26.7602 20.6824C27.0851 21.0847 27.3915 21.5002 27.6248 21.9682C27.957 22.6357 27.657 23.3688 27.078 23.4081L23.4857 23.4071C22.5583 23.4859 21.8198 23.1 21.1968 22.4447C20.7005 21.922 20.239 21.364 19.7606 20.8242C19.5656 20.6022 19.3588 20.3935 19.1143 20.2286C18.6248 19.9001 18.1993 20.0004 17.9182 20.5284C17.6322 21.0659 17.5661 21.6622 17.54 22.2614C17.5001 23.137 17.2448 23.3655 16.3949 23.4061C14.5789 23.4945 12.8552 23.2095 11.254 22.264C9.8405 21.4297 8.74741 20.251 7.79507 18.918C5.9389 16.3183 4.51741 13.4646 3.24081 10.5292C2.95326 9.86798 3.16358 9.51412 3.86858 9.5006C5.04177 9.47652 6.21464 9.47982 7.38624 9.49928C7.86369 9.50686 8.17933 9.78916 8.3622 10.2542C8.99571 11.8652 9.77315 13.398 10.7466 14.8194C11.006 15.1977 11.2709 15.5753 11.6475 15.8427C12.0637 16.1382 12.3809 16.0409 12.5772 15.5611C12.7026 15.2551 12.7569 14.9299 12.7837 14.6027C12.8769 13.4828 12.888 12.3628 12.7272 11.2472C12.6267 10.5493 12.2462 10.0985 11.5728 9.96659C11.2301 9.89931 11.2802 9.76805 11.4468 9.5659C11.7359 9.21566 12.0085 8.99932 12.5498 8.99932L16.6096 8.99866C17.2499 9.12794 17.3922 9.42475 17.4793 10.0906L17.4832 14.7515C17.4765 15.0094 17.6079 15.7732 18.056 15.942C18.4144 16.0644 18.6522 15.7672 18.8667 15.5317C19.8394 14.4649 20.5326 13.2048 21.154 11.9011C21.4275 11.3263 21.6646 10.7307 21.8944 10.1348C22.0645 9.69385 22.3307 9.47685 22.812 9.48477L26.7203 9.48906C26.8352 9.48906 26.9529 9.49037 27.0669 9.50983C27.725 9.62691 27.9053 9.91976 27.702 10.5839C27.3816 11.6271 26.7576 12.4964 26.1474 13.3677C25.4954 14.2993 24.7993 15.2003 24.1521 16.1366C23.5591 16.9953 23.607 17.4267 24.3436 18.1704Z" fill="#597DA3"/>
</g>
<defs>
<clipPath id="clip0_157_7431">
<rect width="30" height="31" fill="white" transform="translate(0.449219 0.710449)"/>
</clipPath>
</defs>
</svg>
