<svg width="49" height="49" viewBox="0 0 49 49" fill="none" xmlns="http://www.w3.org/2000/svg">
<path d="M13.745 41.1936L14.4899 41.6074C17.5519 43.5108 21.1106 44.6694 24.8347 44.6694C35.6761 44.6694 44.6968 35.6487 44.6968 24.6418C44.6968 13.6349 35.6761 4.94531 24.7519 4.94531C13.8278 4.94531 4.97266 13.7177 4.97266 24.6418C4.97266 28.4487 6.04853 32.1728 8.03472 35.3177L8.53131 36.0625L6.62791 43.0143L13.745 41.1936Z" fill="#55CD6C"/>
<path d="M18.3806 13.5525L16.8083 13.4697C16.3117 13.4697 15.8152 13.6353 15.4841 13.9663C14.7393 14.6284 13.498 15.8697 13.1669 17.525C12.5876 20.0078 13.498 22.987 15.6497 25.9663C17.8015 28.9456 21.9394 33.7456 29.2221 35.8146C31.5393 36.4766 33.36 36.0628 34.8497 35.1525C36.0084 34.4077 36.7531 33.2491 37.0014 32.0077L37.2497 30.849C37.3325 30.518 37.1669 30.1042 36.8359 29.9387L31.6221 27.5387C31.291 27.3731 30.8772 27.4559 30.629 27.7869L28.56 30.4352C28.3945 30.6008 28.1462 30.6834 27.898 30.6008C26.491 30.1042 21.7738 28.118 19.2083 23.1525C19.1255 22.9043 19.1255 22.6559 19.291 22.4904L21.2772 20.256C21.4428 20.0078 21.5255 19.6767 21.4428 19.4284L19.0428 14.0491C18.9599 13.8008 18.7117 13.5525 18.3806 13.5525Z" fill="#FEFEFE"/>
</svg>
