<svg width="31" height="31" viewBox="0 0 31 31" fill="none" xmlns="http://www.w3.org/2000/svg">
<path d="M14.0095 22.6093C13.7456 22.982 13.4964 23.1651 13.2581 23.1651C13.0994 23.1651 13.0089 23.0715 12.9804 22.8874C12.9691 22.8486 12.9691 22.704 12.9691 22.4259V17.5986H11.7812V22.7832C11.7812 23.2456 11.8213 23.5599 11.8864 23.7584C12.0054 24.0904 12.269 24.2459 12.652 24.2459C13.0884 24.2459 13.5371 23.982 14.0095 23.4403V24.1555H15.1984V17.5986H14.0095V22.6093Z" fill="#FF0000"/>
<path d="M18.6424 17.5183C18.2063 17.5183 17.7987 17.7569 17.4141 18.2296V15.3555H16.2266V24.1553H17.4141V23.5194C17.8112 24.0104 18.2201 24.2451 18.6424 24.2451C19.1152 24.2451 19.4336 23.9959 19.5914 23.5081C19.6709 23.2304 19.7123 22.7933 19.7123 22.1868V19.5756C19.7123 18.9544 19.6716 18.5208 19.5914 18.2575C19.4327 17.7669 19.1145 17.5183 18.6424 17.5183ZM18.5231 22.2805C18.5231 22.8728 18.3496 23.1653 18.0068 23.1653C17.8112 23.1653 17.6127 23.0717 17.4138 22.8728V18.8765C17.6123 18.6809 17.8105 18.5875 18.0068 18.5875C18.3496 18.5875 18.5231 18.8906 18.5231 19.4826V22.2805Z" fill="#FF0000"/>
<path d="M7.47266 16.5937H8.86965V24.155H10.1913V16.5937H11.6146V15.3545H7.47266V16.5937Z" fill="#FF0000"/>
<path d="M15.0344 11.5393C15.4208 11.5393 15.6068 11.2327 15.6068 10.6198V7.83257C15.6068 7.21938 15.4208 6.91406 15.0344 6.91406C14.6473 6.91406 14.4609 7.2197 14.4609 7.83257V10.6198C14.4609 11.233 14.6473 11.5393 15.0344 11.5393Z" fill="#FF0000"/>
<path d="M22.4275 17.5181C21.8201 17.5181 21.3487 17.741 21.0042 18.1903C20.7519 18.5216 20.6367 19.0347 20.6367 19.7354V22.0314C20.6367 22.7283 20.7663 23.2452 21.0187 23.574C21.3615 24.0217 21.8355 24.2455 22.4561 24.2455C23.0767 24.2455 23.5635 24.0108 23.8929 23.5345C24.0369 23.3248 24.1305 23.0862 24.1703 22.8229C24.1812 22.7039 24.1956 22.4403 24.1956 22.057V21.8835H22.984C22.984 22.3601 22.9679 22.6237 22.957 22.6888C22.8894 23.006 22.7191 23.1651 22.4266 23.1651C22.019 23.1651 21.8192 22.8623 21.8192 22.2552V21.0927H24.1956V19.7354C24.1956 19.034 24.0766 18.5216 23.8281 18.1903C23.4961 17.741 23.0234 17.5181 22.4275 17.5181ZM23.0087 20.1036H21.8208V19.4965C21.8208 18.8897 22.0199 18.587 22.4166 18.587C22.8105 18.587 23.0087 18.89 23.0087 19.4965V20.1036Z" fill="#FF0000"/>
<path d="M29.3046 0.219727H2.36525C1.47978 0.219727 0.761719 0.937788 0.761719 1.82326V28.7626C0.761719 29.6481 1.47978 30.3661 2.36525 30.3661H29.3046C30.1904 30.3661 30.9081 29.6481 30.9081 28.7626V1.82326C30.9081 0.937788 30.1904 0.219727 29.3046 0.219727ZM17.7948 5.91355H18.9916V10.7921C18.9916 11.0734 18.9916 11.2196 19.0067 11.2591C19.033 11.4448 19.127 11.5397 19.288 11.5397C19.5279 11.5397 19.7796 11.3537 20.0458 10.9778V5.91355H21.2468V12.5397H20.0458V11.8171C19.5686 12.3649 19.1125 12.6311 18.6748 12.6311C18.2877 12.6311 18.0215 12.4742 17.9019 12.1385C17.8355 11.9377 17.7948 11.6212 17.7948 11.1533V5.91355ZM13.26 8.07415C13.26 7.36603 13.3802 6.84777 13.6355 6.51327C13.9681 6.05979 14.435 5.83337 15.0338 5.83337C15.6345 5.83337 16.1024 6.05979 16.4343 6.51327C16.6861 6.84777 16.8063 7.36603 16.8063 8.07415V10.3941C16.8063 11.0984 16.6861 11.6212 16.4343 11.9525C16.1024 12.4046 15.6345 12.6311 15.0338 12.6311C14.435 12.6311 13.9681 12.4046 13.6355 11.9525C13.3802 11.6212 13.26 11.0984 13.26 10.3941V8.07415ZM10.0491 3.64776L10.9939 7.13961L11.9021 3.64776H13.2484L11.6468 8.93845V12.5397H10.3159V8.93845C10.1953 8.30089 9.92815 7.36603 9.50161 6.12554C9.22067 5.30036 8.92883 4.47262 8.64821 3.64808L10.0491 3.64776ZM25.3211 24.7339C25.0803 25.7794 24.2249 26.5504 23.1961 26.6655C20.7581 26.9381 18.2912 26.9394 15.8343 26.9381C13.377 26.9394 10.9095 26.9381 8.47214 26.6655C7.44268 26.5504 6.58799 25.7791 6.34714 24.7339C6.00463 23.2449 6.00463 21.6201 6.00463 20.0869C6.00463 18.5539 6.00912 16.9279 6.35163 15.4392C6.59216 14.394 7.44717 13.6224 8.47631 13.5076C10.9137 13.2353 13.3815 13.234 15.8381 13.2353C18.2944 13.234 20.7623 13.2353 23.1999 13.5076C24.2291 13.6224 25.0847 14.394 25.3253 15.4392C25.6675 16.9282 25.6655 18.5539 25.6655 20.0869C25.6652 21.6201 25.6633 23.2449 25.3211 24.7339Z" fill="#FF0000"/>
</svg>
