<svg width="102" height="35" viewBox="0 0 102 35" fill="none" xmlns="http://www.w3.org/2000/svg">
<path d="M84.8914 29.4734C84.8899 29.4734 84.5791 29.758 84.5791 29.758C84.135 30.1658 83.678 30.6023 83.1264 30.384C82.974 30.3271 82.8668 30.1186 82.841 29.9568C82.816 28.7896 83.3277 27.7082 83.8239 26.6552L83.9512 26.3798C85.3787 23.9319 87.0379 21.0475 89.4748 19.0457C89.8855 18.7414 90.3311 18.4857 90.8014 18.6851C90.9096 18.7892 91.0356 18.9697 91.0356 19.1498C91.0356 19.207 90.9862 19.3587 90.9577 19.4059C90.2771 20.5355 89.6289 21.7214 88.9986 22.8599C87.7668 25.1088 86.4889 27.4332 84.8913 29.4737L84.8914 29.4734ZM71.6875 23.7044C71.5942 23.7712 69.948 23.2016 69.6299 21.6361C69.36 20.2883 70.2637 19.2351 71.138 18.7042C71.5133 18.4004 72.0787 18.2963 72.4933 18.4475C72.8782 18.7135 72.9825 19.1883 72.9825 19.6999C72.9825 20.0137 72.942 20.336 72.9062 20.63C72.9062 20.63 72.8994 20.6872 72.8983 20.6967C72.624 21.7495 72.2043 22.784 71.6876 23.7045L71.6875 23.7044ZM65.3989 30.0714C65.231 29.8152 65.1753 29.535 65.1698 29.2322C65.1376 27.3717 67.0866 24.0399 68.4623 22.2247H68.4653C69.0419 23.5213 70.3474 24.3547 71.1355 24.7059C70.1566 26.9453 66.7996 31.7413 65.3993 30.0714H65.3989ZM89.1587 30.4017C88.8329 30.6294 88.3751 30.4544 88.5463 29.9326C88.9726 28.6042 90.6675 25.8971 90.6675 25.8971L95.3882 17.2976H92.1546C92.0009 17.5569 91.6722 18.1523 91.6722 18.1523C91.5226 17.8964 91.0753 17.3272 90.8911 17.2043C90.1011 16.6915 88.9419 16.934 88.1424 17.3988C84.6659 19.4866 82.1295 23.6117 80.1289 26.8281C80.1289 26.8281 78.0231 30.4039 76.8542 30.6698C75.9416 30.7458 76.0358 29.4833 76.0753 29.1891C76.4281 27.0633 77.2475 25.0424 78.0731 23.2111C79.7522 22.0156 81.6684 20.4501 83.4099 18.7327C87.1892 15.0223 90.3751 10.8188 90.8407 9.87955C90.8407 9.87955 90.3366 9.98405 89.7414 10.0029C86.834 14.1683 80.8842 20.2225 79.0805 21.1234C79.8796 19.1494 85.0424 9.72747 89.4359 5.22077L90.1273 4.53735C91.1963 3.46513 92.304 2.36449 93.1672 2.18417C93.2583 2.17473 93.3757 2.18417 93.4771 2.40276C93.5156 3.23762 93.213 3.85445 92.8659 4.55654L92.3794 5.58146C92.3794 5.58146 93.0685 5.44857 93.521 5.29636C94.0462 4.28155 94.6278 3.14258 94.4134 1.78601C94.3418 1.34948 94.0342 1.01743 93.6321 0.941457C92.3215 0.685265 90.8932 1.68125 89.7439 2.48805L89.6975 2.51631C83.7896 7.27013 78.8007 14.1212 74.439 23.4769C74.1229 23.7232 72.9015 24.0177 72.6939 23.8752C73.1246 22.9645 73.6669 21.7402 73.9383 20.4118C73.9853 20.0322 74.029 19.6433 74.029 19.2639C74.029 18.4472 73.8381 17.6789 73.1257 17.1477C72.2905 16.7206 71.2583 16.92 70.5624 17.2425C67.4446 18.5709 65.1145 21.8542 63.433 24.5579C62.5286 26.2758 61.6269 28.1157 61.3773 30.2227C61.2014 31.8734 61.5594 32.9361 62.4732 33.4677C63.4131 33.9608 64.5959 33.4483 65.0606 33.2018C68.2191 31.4939 70.4262 28.0687 72.1657 24.9373C72.2349 24.9279 73.1847 24.8997 73.9031 24.7096C73.9127 24.7096 73.9168 24.7096 73.9327 24.7196C73.8915 24.8613 73.5203 26.0003 73.5203 26.0003C72.4177 29.321 71.9079 31.5794 72.9493 32.9174C74.4374 34.8058 76.9012 32.8513 78.9056 30.27C78.4754 33.3632 80.0363 33.8473 81.2261 33.6103C82.5929 33.2309 84.1159 31.7314 84.8227 30.9631C84.5958 31.8643 84.6575 33.4775 85.9008 33.6387C86.7531 33.8005 87.3908 33.3244 88.1287 32.9163C90.7758 31.4359 93.9447 26.5032 94.7673 25.077H93.6886C92.5192 26.8922 91.031 29.2723 89.159 30.402L89.1587 30.4017ZM48.3787 11.9818H51.4082L53.1181 9.12949H50.0879L48.3787 11.9818ZM96.7733 4.40446C94.4633 5.75206 92.0687 6.62477 89.1698 6.32123C88.3664 7.25135 87.5843 8.20958 86.8633 9.19629C90.9318 10.259 95.2449 7.8964 97.6505 5.64787C100.195 3.38 101.5 0.524186 101.5 0.524186C101.5 0.524186 99.5927 2.76327 96.7732 4.40451L96.7733 4.40446ZM71.2987 3.68359C70.817 9.35768 66.5225 12.6887 65.46 12.9537C64.8161 13.0863 63.7173 12.7924 64.6981 10.4111C66.1427 7.20359 68.6089 4.4808 71.2549 3.08574C71.3193 3.32301 71.3176 3.47444 71.2987 3.68344L71.2987 3.68359ZM62.9307 17.9826C62.6231 17.2996 61.8927 16.8631 61.1143 16.9104C58.5867 17.1478 56.1143 19.2826 54.8161 22.3475C54.135 23.9228 53.7632 25.2226 53.5194 27.291C54.3054 26.3614 55.9086 24.8338 57.7279 23.9987C57.7279 23.9987 57.9755 22.0157 59.2378 20.2508C59.7155 19.5199 60.6714 18.3434 61.7449 18.6565C62.6827 18.9793 62.3531 21.6456 61.1066 24.2258C60.1843 26.1238 58.773 28.022 57.345 29.3311C56.0825 30.4318 54.2146 31.7601 52.5803 30.7355C51.551 30.1095 51.026 28.7998 51.1369 27.1108C51.6287 22.3193 53.7525 18.239 56.7913 13.5897C59.925 9.27237 63.3794 4.84128 68.033 2.47799C68.9822 1.98466 69.8611 1.8708 70.6209 2.17447C70.6209 2.17447 66.2526 4.64149 64.1702 9.20575C63.6405 10.3635 62.9038 11.9287 63.6457 13.3142C64.0334 14.0351 64.7217 14.0922 65.2759 14.0542C67.8283 13.4468 69.4773 10.9988 70.8248 8.75975C71.6059 7.06131 72.3002 5.37231 72.3002 3.49329C72.3002 3.26562 72.2887 2.96213 72.2699 2.73415C73.4894 2.07023 75.9899 3.24654 75.9899 3.24654C77.9439 3.91098 82.1048 7.18474 83.508 7.8107C84.1926 6.99482 85.3177 5.76142 85.9511 5.14454L85.0341 4.56567C83.566 3.64524 82.0141 2.77222 80.4866 1.90884C77.0178 -0.0360401 74.194 0.646966 72.7569 1.17838C72.1921 1.38699 71.6759 1.56734 71.6759 1.56734C70.6095 0.371845 68.8604 0.48542 67.5717 0.808253C62.937 2.17452 58.6341 5.50487 54.0209 11.2836C50.6292 15.8098 48.5251 19.7193 47.4041 23.5808C46.5397 26.1805 46.2771 30.0043 48.3867 32.2722C50.1804 34.1978 52.5589 33.7807 54.2386 33.0882C57.8776 31.2474 61.1483 27.2808 62.7782 22.7171C63.1715 21.3604 63.608 19.4437 62.9309 17.9823L62.9307 17.9826ZM22.593 13.5803C22.587 13.5992 21.975 15.0413 21.975 15.0413C21.8865 15.1172 21.7466 15.0793 21.5863 15.0413L21.3116 14.9936C20.449 14.7186 19.7984 14.1302 19.5978 13.4282C19.3211 12.0617 20.4576 10.9896 20.9584 10.6007C21.4388 10.2588 22.1858 10.0786 22.6195 10.4298C22.887 10.7526 22.9884 11.1699 22.9884 11.6257C22.9885 12.2423 22.8032 12.9349 22.593 13.5803H22.593ZM21.2784 16.3222C21.2784 16.3222 21.2506 16.4079 21.2369 16.4359C21.2333 16.4359 19.8457 18.7603 19.8457 18.7603C19.0083 19.9086 17.9627 21.3512 16.6556 22.0436C16.2682 22.1765 15.7326 22.262 15.4598 21.9112C14.8812 21.1994 15.1794 20.2127 15.4217 19.4157L15.5074 19.1309C16.2019 17.1955 17.304 15.4872 18.3766 13.9023C18.39 13.893 18.42 13.8836 18.4309 13.8836C18.4334 13.8931 18.4377 13.8931 18.4395 13.9121C19.1126 15.2402 20.3748 15.8568 21.3187 16.1418C21.3244 16.1418 21.3304 16.1513 21.3304 16.1704C21.3305 16.1986 21.3151 16.2369 21.2784 16.3219L21.2784 16.3222ZM38.6365 14.7946C39.2571 13.9123 41.0637 11.5496 41.5042 11.1511C42.9854 9.8127 43.5775 10.4016 43.6287 10.8188C42.2463 13.3617 40.6147 16.2746 39.0807 18.8935C39.0837 18.8842 38.6006 19.643 38.6006 19.643C37.923 20.7056 37.2409 21.6164 36.1281 22.2522C35.9694 22.2999 35.7079 22.3189 35.5338 22.1856C35.3242 22.0433 35.2415 21.806 35.2651 21.5592C35.3318 20.7434 36.1406 18.2484 38.6364 14.7944L38.6365 14.7946ZM23.2532 9.02561C21.3382 7.73521 17.4893 10.2022 14.4066 14.4337C11.5874 18.2294 10.3701 22.6411 11.6949 24.6813C13.6656 27.0819 17.324 23.5902 18.8798 21.7212L19.0805 21.5028C20.1385 20.3356 20.9559 18.9312 21.747 17.5838C21.747 17.5838 22.4741 16.3502 22.5089 16.2932C22.9583 16.2081 23.4996 16.0753 24.1096 15.8949C24.1009 15.9232 21.7758 19.9369 22.013 21.9294C22.0869 22.5372 22.0305 24.7575 24.1411 25.4311C26.9542 25.9153 29.2007 23.6757 31.1821 21.6831C31.1821 21.6831 31.5198 21.3513 31.7108 21.1619C31.6625 21.3606 31.5995 21.6258 31.5995 21.6258C30.7759 24.5673 31.886 25.1845 32.5805 25.4122C34.6791 26.0388 37.1863 22.9074 37.1944 22.9074C37.1294 23.8938 36.9393 24.7098 37.9517 25.3645C38.9074 25.7159 39.8745 25.1803 40.6095 24.6774C43.2574 22.7607 45.3905 19.761 47.1133 17.1679H46.0142C46.0013 17.1679 43.3023 21.1856 41.5497 22.0588C41.5472 22.0588 41.2281 22.227 41.0443 22.0939C40.8168 21.8945 40.9066 21.4802 41.0468 21.1866C41.0557 21.1674 47.8136 9.12952 47.8136 9.12952H44.6229C44.6229 9.12952 44.2743 9.7087 44.2459 9.74666C44.2245 9.72773 44.1733 9.62816 44.1379 9.58045C42.161 6.77193 37.6841 11.0919 34.3136 16.1014C33.016 18.0278 31.3639 20.1968 29.6509 21.7625C29.6509 21.7625 27.1132 24.1518 26.0288 22.4352C25.6324 21.7139 25.7544 20.6595 25.978 19.967C27.2404 16.276 29.4159 12.9264 31.8914 10.9049C32.5902 10.3454 33.3498 10.1836 33.7268 10.4209C34.0859 10.6395 34.1439 11.1799 33.9166 11.55C33.3401 11.5311 32.8782 11.711 32.5027 12.1096C31.7629 12.9067 31.5059 13.6753 31.7411 14.3966C32.8837 16.0665 35.1624 12.7645 35.0522 10.7529C35.0128 10.0316 34.6381 9.3486 34.079 9.01617C33.2458 8.50405 31.9745 8.63668 31.1518 9.04496C30.0506 9.47177 28.3072 10.9613 27.2896 12.1192C26.0086 13.5712 23.8115 15.184 23.1244 15.0034C23.3495 14.3864 25.2053 10.4867 23.253 9.02592L23.2532 9.02561ZM39.2914 30.1376C35.5336 27.6514 30.4336 27.2151 22.209 29.5587C13.4411 31.6749 10.5175 33.0314 6.67834 30.3082C5.20339 28.9705 4.67456 26.8165 5.06948 23.7141C5.98535 18.6564 8.4603 13.789 12.8568 8.39032C15.3107 5.5818 17.5869 3.17157 20.5926 2.20385C22.8961 1.59667 22.6808 3.45603 22.402 3.72192C22.1079 3.72192 21.6138 3.76953 21.232 4.02543C20.9221 4.27229 20.0714 5.06939 20.0257 6.14161C19.9598 7.783 21.6137 7.44135 22.3271 6.54016C23.096 5.52462 24.2324 3.57979 23.3385 1.76726C22.9638 1.12211 22.3165 0.676267 21.5127 0.524419C18.7605 0.362873 16.1972 1.71032 13.8315 3.20002C8.6593 6.89095 4.52075 12.0055 2.17931 17.6038C0.82918 20.9816 -0.391782 25.8201 1.43845 29.7584C2.85422 32.491 5.79352 33.9424 9.30048 33.6389C11.76 33.3735 14.7337 32.5571 16.7343 32.0642C18.7345 31.5704 28.9732 27.9556 32.3377 34.247C32.3377 34.247 33.4564 32.0165 36.2521 31.969C38.5507 31.7512 41.8667 32.6524 44.2813 34.4739C43.4768 33.2313 41.196 31.4 39.2932 30.1378L39.2914 30.1376Z" fill="#B0B2B4"/>
</svg>
