<svg width="58" height="55" viewBox="0 0 58 55" fill="none" xmlns="http://www.w3.org/2000/svg">
<path d="M34.5612 5.58466C26.3612 -1.91534 13.5612 -1.31534 6.06122 6.98466C-1.43878 15.2847 -0.838779 27.9847 7.46122 35.4847C15.1612 42.4847 26.9612 42.3847 34.5612 35.4847L55.2612 54.2847L57.2612 52.0847L36.5612 33.2847C43.3612 24.9847 42.5612 12.7847 34.5612 5.58466ZM33.7612 31.9847C27.3612 38.9847 16.5612 39.4847 9.46122 33.1847C2.36122 26.8847 1.96122 15.9847 8.26122 8.88466C14.5612 1.78466 25.4612 1.38466 32.5612 7.68466C39.6612 13.9847 40.1612 24.9847 33.7612 31.9847Z" fill="white"/>
</svg>
